<svg width="18" height="11" viewBox="0 0 18 11" fill="none" xmlns="http://www.w3.org/2000/svg">
  <path d="M17.8202 8.58539L9.41467 0.180425C9.29458 0.0602049 9.15642 0 9.00013 0C8.84383 0 8.70542 0.0602049 8.58526 0.180425L0.180425 8.58539C0.0600152 8.7058 0 8.84396 0 9.00032C0 9.15661 0.0602047 9.29496 0.180425 9.41512L1.08204 10.3167C1.20226 10.4369 1.34061 10.497 1.4969 10.497C1.6532 10.497 1.79155 10.4369 1.91177 10.3167L9.00013 3.22844L16.0887 10.3171C16.2089 10.4373 16.3473 10.497 16.5033 10.497C16.6599 10.497 16.7982 10.437 16.9184 10.3171L17.8201 9.41518C17.9403 9.29502 18 9.15661 18 9.00038C18.0001 8.84396 17.9404 8.70561 17.8202 8.58539Z" fill="#A0ACBD"/>
</svg>
