<svg width="100" height="100" viewBox="0 0 100 100" fill="none" xmlns="http://www.w3.org/2000/svg">
<g clip-path="url(#clip0)">
<path d="M98.7556 51.2078C98.7556 78.1548 76.9112 100 49.9641 100C23.0171 100 1.17188 78.1548 1.17188 51.2078C1.17188 24.2607 23.0171 2.41626 49.9641 2.41626C76.9112 2.41626 98.7556 24.2607 98.7556 51.2078Z" fill="#DEEBFF"/>
<path d="M50.4959 37.6494H25.8987C14.6736 37.6494 5.57404 46.749 5.57404 57.9741C5.57404 66.0941 10.3363 73.1017 17.2195 76.3571C19.9837 77.6648 21.7567 80.4373 21.7567 83.4952V87.8554C21.7567 89.5133 23.8991 90.174 24.8322 88.8045L29.6471 81.7427C31.1165 79.5882 33.5556 78.2988 36.1633 78.2988H50.4959C61.721 78.2988 70.8206 69.1992 70.8206 57.9741C70.8199 46.749 61.7203 37.6494 50.4959 37.6494Z" fill="white"/>
<path d="M24.9863 76.3571C18.103 73.1017 13.3408 66.0941 13.3408 57.9741C13.3408 46.749 22.4403 37.6494 33.6655 37.6494H25.8987C14.6736 37.6494 5.57404 46.749 5.57404 57.9741C5.57404 66.0941 10.3355 73.1017 17.2188 76.3571C19.9837 77.6648 21.756 80.4373 21.756 83.4952V87.8554C21.756 89.5133 23.8983 90.174 24.8322 88.8045L29.3953 82.1112C28.9497 79.621 27.3254 77.4634 24.9863 76.3571Z" fill="#F5F6F8"/>
<path d="M28.1914 58.3625C28.1914 60.4346 26.5121 62.1146 24.44 62.1146C22.3679 62.1146 20.6879 60.4346 20.6879 58.3625C20.6879 56.2903 22.3679 54.6104 24.44 54.6104C26.5121 54.6104 28.1914 56.2903 28.1914 58.3625Z" fill="#2979FF"/>
<path d="M41.9495 58.3625C41.9495 60.4346 40.2695 62.1146 38.1973 62.1146C36.1252 62.1146 34.4452 60.4346 34.4452 58.3625C34.4452 56.2903 36.1252 54.6104 38.1973 54.6104C40.2695 54.6104 41.9495 56.2903 41.9495 58.3625Z" fill="#2979FF"/>
<path d="M55.7068 58.3625C55.7068 60.4346 54.0268 62.1146 51.9547 62.1146C49.8825 62.1146 48.2025 60.4346 48.2025 58.3625C48.2025 56.2903 49.8825 54.6104 51.9547 54.6104C54.0268 54.6104 55.7068 56.2903 55.7068 58.3625Z" fill="#2979FF"/>
<path d="M49.2752 0H73.8716C85.0967 0 94.1963 9.09958 94.1963 20.3247C94.1963 28.4447 89.4348 35.4515 82.5516 38.7077C79.7867 40.0154 78.0144 42.7879 78.0144 45.8458V50.206C78.0144 51.8631 75.872 52.5246 74.9382 51.1551L70.1233 44.0926C68.6546 41.938 66.2155 40.6494 63.607 40.6494H49.2752C38.0501 40.6494 28.9505 31.5498 28.9505 20.3247C28.9505 9.09958 38.0501 0 49.2752 0Z" fill="#FBB429"/>
<path d="M71.9719 38.0607H57.6393C46.4142 38.0607 37.3146 28.9604 37.3146 17.736C37.3146 10.3363 41.2697 3.86044 47.1809 0.305908C36.94 1.35419 28.9505 10.0059 28.9505 20.5238C28.9505 31.7489 38.0501 40.8485 49.2752 40.8485H63.6078C66.2155 40.8485 68.6546 42.1379 70.1233 44.2924L74.9382 51.3542C75.872 52.7237 78.0144 52.063 78.0144 50.4051V46.0449C78.0144 44.6884 78.3646 43.3883 78.9948 42.247L78.4874 41.5046C77.0187 39.3493 74.5796 38.0607 71.9719 38.0607Z" fill="#F5A209"/>
<path d="M79.0833 20.7131C79.0833 22.7852 77.4033 24.4652 75.3311 24.4652C73.259 24.4652 71.579 22.7852 71.579 20.7131C71.579 18.6409 73.259 16.9609 75.3311 16.9609C77.4033 16.9609 79.0833 18.6409 79.0833 20.7131Z" fill="white"/>
<path d="M65.3252 20.7131C65.3252 22.7852 63.6459 24.4652 61.5738 24.4652C59.5016 24.4652 57.8217 22.7852 57.8217 20.7131C57.8217 18.6409 59.5016 16.9609 61.5738 16.9609C63.6459 16.9609 65.3252 18.6409 65.3252 20.7131Z" fill="white"/>
<path d="M51.5678 20.7131C51.5678 22.7852 49.8878 24.4652 47.8157 24.4652C45.7436 24.4652 44.0636 22.7852 44.0636 20.7131C44.0636 18.6409 45.7436 16.9609 47.8157 16.9609C49.8878 16.9609 51.5678 18.6409 51.5678 20.7131Z" fill="white"/>
</g>
<defs>
<clipPath id="clip0">
<rect width="100" height="100" fill="white"/>
</clipPath>
</defs>
</svg>
