<?xml version="1.0" standalone="no"?>
<!DOCTYPE svg PUBLIC "-//W3C//DTD SVG 1.1//EN" "http://www.w3.org/Graphics/SVG/1.1/DTD/svg11.dtd" >
<svg xmlns="http://www.w3.org/2000/svg">
<metadata>Generated by IcoMoon</metadata>
<defs>
<font id="EVI" horiz-adv-x="1024">
<font-face units-per-em="1024" ascent="960" descent="-64" />
<missing-glyph horiz-adv-x="1024" />
<glyph unicode="&#x20;" horiz-adv-x="512" d="" />
<glyph unicode="&#xe900;" glyph-name="user1" d="M655.294 414.384c88.883 48.589 149.118 142.865 149.118 250.195 0.735 158.82-129.282 287.181-289.421 287.181s-290.892-128.361-290.892-286.456c0-108.056 60.235-201.607 149.118-250.196-213.761-60.918-370.226-255.271-370.226-485.888 0 0 0 0 0-0.725h55.828c0 248.747 204.212 450.352 456.172 450.352s456.171-201.604 456.171-450.352h55.829c0 0 0 0 0 0.725-0.735 230.618-157.2 424.969-371.697 485.164zM280.661 665.305c0 127.636 105.044 231.34 234.331 231.34 129.282 0 234.328-103.705 234.328-231.34s-105.044-231.342-234.328-231.342c-129.287 0-234.331 103.706-234.331 231.342z" />
<glyph unicode="&#xe901;" glyph-name="new1" d="M1000.673 726.715h-248.023v208.115c0 10.436-6.753 19.031-15.959 22.715-2.458 1.842-6.139 2.456-9.825 2.456h-702.31c-13.506 0-24.556-11.050-24.556-24.556v-847.81c1.842-82.263 67.53-147.953 149.18-151.020h713.361c82.877 0 150.41 63.232 158.387 143.652 0.614 1.843 0.614 3.686 0.614 5.524v619.437c0 11.664-9.206 21.487-20.869 21.487zM49.113 85.796v113.572c0 0.922 0.153 1.843 0.307 2.76 0.153 0.922 0.307 1.843 0.307 2.765l-0.614-0.614v706.61h654.426v-822.639c0-1.229 0-2.452 0.614-3.681 2.458-38.676 18.417-73.672 43.587-100.070h-383.692l0.614 0.614c-0.921 0-1.688-0.154-2.456-0.307h-0.001c-0.767-0.154-1.534-0.307-2.455-0.307h-210.571c-54.024 4.301-96.998 47.273-100.067 101.299zM862.541-14.275c-60.774 0-109.891 49.116-109.891 109.891v189.696c0 4.915 0.614 9.211 1.229 13.507-0.379 0-0.522-0.23-0.722-0.558-0.123-0.2-0.271-0.435-0.507-0.666v380.007h219.781v-379.398c-0.379 0-0.522 0.236-0.722 0.558-0.128 0.205-0.271 0.435-0.507 0.671 0.614-4.296 1.229-9.206 1.229-13.507v-189.696c0-61.389-49.111-110.505-109.891-110.505zM126.466 608.845h500.335c13.507 0 24.556 11.050 24.556 24.557v168.211c0 13.506-11.049 24.557-24.556 24.557h-500.335c-13.506 0-24.556-11.050-24.556-24.557v-168.211c0-13.506 10.436-24.557 24.556-24.557zM151.022 777.056h451.223v-119.099h-451.223v119.099zM626.801 471.942h-500.335c-14.12 0-24.556 11.050-24.556 24.556s11.050 24.557 24.556 24.557h500.335c13.507 0 24.556-11.050 24.556-24.557s-11.049-24.556-24.556-24.556zM126.466 375.557h500.335c13.507 0 24.556 11.054 24.556 24.561 0 13.501-11.049 24.556-24.556 24.556h-500.335c-13.506 0-24.556-11.054-24.556-24.556 0-13.507 10.436-24.561 24.556-24.561zM651.356 296.98c0-13.507-11.049-24.561-24.556-24.561h-500.335c-13.506 0-24.556 11.054-24.556 24.561 0 13.501 11.050 24.556 24.556 24.556h500.335c13.507 0 24.556-11.054 24.556-24.556z" />
<glyph unicode="&#xe902;" glyph-name="share" d="M846.104 291.813c-25.232 0-49.17-5.175-71.167-14.88l-135.865 161.741 137.805 164.33c21.351-9.057 44.641-14.233 69.227-14.233 97.693 0 177.27 79.577 177.27 177.27s-79.576 177.27-177.27 177.27c-97.692 0-177.27-79.577-177.27-177.27 0-36.878 10.998-71.167 30.406-98.987l-148.803-177.917h-186.973c-21.351 73.108-89.283 126.807-170.154 126.807-97.045-0.647-176.623-79.577-176.623-177.271s79.577-177.27 177.27-177.27c80.225 0 148.155 53.699 170.152 126.807h186.974l148.155-176.623c-18.762-27.82-29.113-61.463-29.113-97.692 0-97.693 79.577-177.27 177.27-177.27s177.271 79.576 177.271 177.27c-1.294 98.339-80.871 177.917-178.564 177.917zM193.311 359.745c-42.699 0-77.636 34.936-77.636 77.636s34.936 77.636 77.636 77.636c42.701 0 77.636-34.936 77.636-77.636-0.647-42.699-34.936-77.636-77.636-77.636zM845.457 841.736c42.699 0 77.636-34.936 77.636-77.636s-34.936-77.636-77.636-77.636c-42.699 0-77.636 34.936-77.636 77.636 0 43.347 34.936 77.636 77.636 77.636zM845.457 35.613c-42.699 0-77.636 34.936-77.636 77.636s34.936 77.636 77.636 77.636c42.699 0 77.636-34.936 77.636-77.636s-34.936-77.636-77.636-77.636z" />
<glyph unicode="&#xe903;" glyph-name="planet-earth" d="M883.604 541.155c0 230.953-187.896 418.845-418.848 418.845-12.921 0-23.397-10.474-23.397-23.398 0-12.922 10.476-23.398 23.397-23.398 26.485 0 52.324-2.803 77.252-8.088l-12.335-46.041c-77.782 15.953-157.699 3.099-227.047-36.939-75.063-43.337-128.755-113.306-151.198-197.020 0-0.005-0.002-0.008-0.005-0.011l-0.005-0.024c0 0 0-0.003-0.002-0.003l-0.197-0.78c-0.002-0.005-0.002-0.011-0.002-0.016-18.767-70.737-12.974-146.114 16.242-213.005 0.337-1.972 0.897-3.915 1.741-5.774 37.643-82.59 107.143-144.875 192.495-173.345l-12.015-44.843c-49.262 16.014-95.020 42.278-134.199 77.659-9.589 8.659-24.382 7.908-33.047-1.683-8.66-9.591-7.907-24.387 1.685-33.046 60.073-54.248 133.866-89.498 212.683-102.413-1.3-8.006-3.524-15.812-6.703-23.331-16.114-38.095-53.253-62.713-94.612-62.713-12.921 0-23.4-10.476-23.4-23.397v-58.993c0-12.921 10.479-23.397 23.4-23.397h339.27c12.923 0 23.4 10.474 23.4 23.397v58.993c0 12.921-10.476 23.397-23.4 23.397-42.483 0-79.998 25.534-95.565 65.053-2.694 6.835-4.6 13.9-5.763 21.123 198.393 32.865 350.176 205.622 350.176 413.192zM524.495 811.127c3.996-0.885 8.016-1.85 11.978-2.911 3.954-1.059 7.919-2.233 11.834-3.469 30.562-16.364 51.497-64.027 56.853-127.652-32.364 2.536-65.61 8.292-99.191 17.287-33.579 8.999-65.25 20.639-94.544 34.624 36.454 52.418 78.415 83.206 113.071 82.121zM698.166 679.742c-1.988-0.307-3.978-0.612-5.965-0.922-3.881-0.596-7.824-0.979-11.737-1.365-4.356-0.431-8.722-0.777-13.091-1.056-5.057-0.323-10.119-0.541-15.187-0.656-1.617 27.818-6.756 55.428-15.252 81.966 0.139-0.111 0.284-0.223 0.425-0.339 26.64-21.233 49.354-47.378 66.655-76.727 0-0.134-5.343-0.824-5.847-0.901zM724.766 636.981c0.328-0.874 0.675-1.741 0.992-2.618 4.088-11.338 7.438-22.909 10.027-34.679 0.798-3.642 1.518-7.307 2.171-10.98 2.266-12.719 3.671-25.873 4.133-38.878 0.685-19.275-0.622-38.775-3.941-57.78l-99.596 26.684c0.158 0.685 0.289 1.373 0.446 2.059 3.090 13.769 5.719 27.637 7.856 41.588 1.266 8.268 2.363 16.56 3.272 24.873 0.575 5.296 1.079 10.6 1.507 15.909 0.643 8.053 1.111 16.116 1.384 24.19 0.018 0.517 0.053 1.045 0.066 1.562 0.205 0.41 4.151 0.179 4.926 0.179 0.029 0 0.050 0 0.071 0 22.344 0.672 44.822 3.167 66.686 7.893zM726.134 446.821c-17.014-47.107-46.555-88.912-85.273-120.625-11.238 10.143-23.219 19.464-35.643 28.102-0.501 0.349-1.006 0.698-1.51 1.045-2.402 1.654-4.823 3.287-7.26 4.892-4.317 2.846-8.683 5.621-13.099 8.313-0.171 0.108-0.336 0.213-0.512 0.318 7.417 13.664 14.192 27.674 20.391 41.931 3.944 9.064 7.659 18.225 11.141 27.475 4.114 10.931 7.956 22.132 11.453 33.338 0.202 0.643 0.42 1.279 0.62 1.927l99.693-26.716zM600.839 298.908c-0.273-0.155-0.544-0.318-0.817-0.47-0.73-0.402-1.46-0.803-2.19-1.205-10.172-5.553-20.693-10.461-31.476-14.709-4.755-1.875-9.563-3.613-14.415-5.217-7.509-2.484-15.124-4.65-22.817-6.485-6.945-1.657-13.958-3.033-21.013-4.146-1.441-0.226-2.888-0.436-4.332-0.641 18.986 16.444 37.429 37.523 54.713 62.837 0.347 0.265 4.852-2.996 5.474-3.39 9.812-6.194 19.369-12.818 28.554-19.915 0.89-0.691 1.778-1.381 2.665-2.077 0.885-0.698 1.767-1.399 2.644-2.108 0.874-0.706 1.746-1.42 2.61-2.14 0.142-0.097 0.27-0.226 0.399-0.333zM606.242 628.552c-0.417-12.091-1.313-24.161-2.626-36.189-1.856-17.035-4.8-33.876-7.99-50.706-0.617-3.004-1.26-6.013-1.925-9.019-0.134-0.593-0.268-1.187-0.399-1.778l-244.731 65.573c0.165 0.528 0.328 1.056 0.494 1.581 0.964 3.064 1.956 6.118 2.97 9.166 9.205 27.64 20.506 54.624 34.191 80.35 0.231 0.431 0.462 0.859 0.693 1.289 33.086-16.158 68.952-29.457 106.94-39.634 37.985-10.177 75.697-16.597 112.427-19.146-0.018-0.494-0.029-0.987-0.045-1.486zM328.313 781.923c3.763 2.116 7.58 4.146 11.437 6.086 10.342 5.196 21.013 9.759 31.954 13.616 10.211 3.6 20.727 6.676 31.327 9.088 6.693 1.523 13.449 2.81 20.236 3.833 0.339 0.052 0.68 0.094 1.019 0.144-18.894-16.67-37.192-37.922-54.322-63.328-0.935 0.574-1.862 1.153-2.791 1.732-7.475 4.657-14.822 9.545-21.953 14.724-2.565 1.866-5.123 3.758-7.641 5.69-3.295 2.53-6.546 5.123-9.736 7.782-0.092 0.075-0.179 0.15-0.231 0.247 0.231 0.132 0.467 0.257 0.701 0.386zM191.535 590.068c33.232-8.904 66.465-17.81 99.698-26.713-8.51-36.898-13.42-74.626-14.635-112.472-2.689-0.081-5.372-0.179-8.061-0.291-9.3-0.391-18.579-0.992-27.846-1.99-2.937-0.315-5.869-0.667-8.799-1.056-8.996-1.2-17.948-2.718-26.836-4.55-17.576 46.626-22.302 98.023-13.522 147.073zM293.043 322.838c-12.876 10.145-24.999 21.572-35.928 33.91-11.543 13.028-21.871 27.168-30.776 42.121-0.089 0.152-0.176 0.307-0.266 0.457 0.047 0.008 0.092 0.018 0.139 0.026 3.822 0.651 7.721 1.229 11.681 1.751 4.464 0.588 8.945 1.090 13.428 1.502 4.071 0.373 8.203 0.68 12.385 0.924 4.479 0.263 8.964 0.446 13.449 0.557 0.192 0.005 0.381 0.013 0.572 0.018 2.311-30.568 7.743-58.040 15.961-81.773-0.21 0.168-0.431 0.333-0.646 0.507zM303.322 608.561l-99.586 26.684c0.026 0.071 0.047 0.144 0.075 0.215 0.122 0.336 0.247 0.672 0.372 1.008 2.412 6.504 5.107 12.916 8.001 19.217 3.478 7.575 7.276 15.003 11.42 22.237 6.267 10.941 13.258 21.358 20.916 31.371 9.093 11.886 19.343 23.163 30.305 33.433 4.191 3.927 8.528 7.688 12.958 11.343 6.551-5.935 13.367-11.606 20.364-17.014 6.64-5.132 13.467-10.037 20.422-14.734 5.666-3.824 11.419-7.523 17.258-11.079-0.076 0.045-13.154-26.285-14.386-28.961-4.81-10.447-9.3-21.042-13.48-31.755-5.385-13.808-10.272-27.806-14.641-41.966zM323.726 457.565c0.546 11.85 1.489 23.681 2.828 35.467 2.224 19.566 5.535 39.007 9.922 58.205 81.568-21.856 163.134-43.714 244.702-65.57-10.009-32.642-23.242-64.297-39.437-94.35 0.053 0.092-27.827 12.488-30.392 13.548-10.353 4.282-20.827 8.281-31.4 11.991-21.15 7.417-42.701 13.685-64.53 18.763-21.827 5.078-43.932 8.967-66.185 11.634-5.561 0.667-11.135 1.258-16.715 1.77-3.017 0.278-6.139 0.53-9.2 0.78l0.407 7.761zM393.009 272.812c-36.066 9.66-61.734 59.55-68.159 129.835 32.104-2.571 65.061-8.302 98.336-17.216 33.272-8.917 64.68-20.43 93.767-34.257-40.676-57.62-87.815-87.99-123.875-78.381-0.024 0.008-0.047 0.011-0.068 0.018zM611.36-3.203v-13.995h-292.475v14.021c50.504 7.948 93.948 41.304 114.313 89.453 4.981 11.779 8.376 24.027 10.193 36.591 7.1-0.36 14.223-0.562 21.367-0.562 7.41 0 14.772 0.202 22.090 0.583 1.641-11.356 4.576-22.46 8.804-33.196 19.755-50.142 63.779-84.819 115.709-92.895zM464.757 169.102c-23.589 0-46.925 2.24-69.75 6.582l12.033 44.901c19.225-3.482 38.571-5.249 57.835-5.249 66.794 0.003 132.524 20.698 188.306 60.487 1.657 1.182 3.576 2.347 5.020 3.679 58.73 43.305 100.796 106.105 119.95 176.808 0.005 0.016 0.008 0.032 0.013 0.047l0.205 0.727c43.953 164.047-46.539 332.986-203.629 389.367l12.343 46.067c145.237-50.707 249.727-189.054 249.727-351.366 0-205.149-166.901-372.051-372.053-372.051z" />
<glyph unicode="&#xe904;" glyph-name="shuffle" d="M823.827 336.348l-56.538-56.54 103.661-103.654h-120.333c-53.446 0-103.821 25.485-135.188 68.282l-114.829 203.541 114.162 203.357c31.478 42.94 81.846 68.512 135.164 68.512h121.018l-103.654-103.656 56.531-56.538 200.173 200.174-200.166 200.174-56.538-56.538 103.661-103.656h-121.018c-79.776 0-155.075-38.754-201.439-103.662-0.842-1.18-1.62-2.402-2.328-3.668l-91.524-163.032-92.014 163.106c-0.7 1.238-1.462 2.436-2.288 3.594-46.364 64.91-121.666 103.66-201.432 103.66h-158.908v-79.956h158.904c53.33 0 103.709-25.585 135.186-68.545l114.76-203.423-114.082-203.215c-31.48-42.944-81.848-68.512-135.166-68.512h-159.602v-79.955h159.606c79.768 0 155.070 38.752 201.434 103.661 0.842 1.178 1.622 2.4 2.33 3.667l91.444 162.888 92.082-163.227c0.7-1.242 1.462-2.438 2.288-3.597 46.246-64.742 121.549-103.398 201.434-103.398h120.333l-103.661-103.654 56.538-56.538 200.173 200.173-200.173 200.175z" />
<glyph unicode="&#xe905;" glyph-name="angle-up" d="M1013.771 263.587l-478.181 478.149c-6.832 6.838-14.691 10.264-23.582 10.264-8.893 0-16.766-3.426-23.602-10.264l-478.142-478.149c-6.85-6.851-10.264-14.71-10.264-23.605 0-8.891 3.425-16.762 10.264-23.598l51.292-51.288c6.839-6.838 14.71-10.258 23.601-10.258s16.762 3.419 23.601 10.258l403.25 403.242 403.262-403.267c6.835-6.838 14.71-10.235 23.587-10.235 8.906 0 16.776 3.418 23.611 10.235l51.299 51.31c6.835 6.835 10.232 14.71 10.232 23.597 0.003 8.899-3.392 16.77-10.229 23.61z" />
<glyph unicode="&#xe906;" glyph-name="add-user" d="M215.583 663.67c0 162.892 132.525 295.419 295.419 295.419s295.419-132.525 295.419-295.419c0-162.895-132.525-295.421-295.419-295.421-237.74 0-431.154-193.414-431.154-431.155h-79.843c0 136.494 53.154 264.815 149.671 361.334 55.656 55.655 121.903 96.855 194.18 121.796-77.414 53.318-128.273 142.549-128.273 243.447zM295.426 663.667c0-118.869 96.707-215.575 215.576-215.575s215.576 96.705 215.576 215.575c0 118.871-96.707 215.578-215.576 215.578s-215.576-96.709-215.576-215.578zM856.333 352.19v-167.673h167.672v-79.843h-167.672v-167.673h-79.843v167.673h-167.672v79.843h167.672v167.673h79.843z" />
<glyph unicode="&#xe907;" glyph-name="analytics1" d="M895.996 959.993c-47.061 0-85.333-38.271-85.333-85.334 0-15.809 4.32-30.625 11.844-43.334l-139.173-139.167c-12.704 7.52-27.527 11.84-43.334 11.84-26.834 0-50.809-12.446-66.463-31.863l-104.225 29.725 0.026 2.143c0 47.063-38.274 85.334-85.333 85.334s-85.333-38.271-85.333-85.334c0-12.409 2.656-24.209 7.442-34.853l-133.012-106.054c-13.093 8.179-28.547 12.91-45.093 12.91-47.060 0-85.333-38.271-85.333-85.333s38.274-85.333 85.333-85.333c47.060 0 85.333 38.273 85.333 85.333 0 15-3.891 29.105-10.717 41.365l130.143 103.768c14.273-10.753 32.025-17.132 51.237-17.132 31.323 0 58.737 16.947 73.579 42.154l98.25-28.017c-0.77-4.599-1.166-9.321-1.166-14.137 0-47.062 38.273-85.333 85.333-85.333s85.333 38.271 85.333 85.333c0 15.806-4.32 30.624-11.833 43.327l139.178 139.17c12.704-7.52 27.51-11.835 43.319-11.835 47.061 0 85.333 38.271 85.333 85.333s-38.273 85.334-85.333 85.334zM351.49 676.4c-0.25 0.347-0.498 0.682-0.774 1.019-0.275 0.341-0.546 0.67-0.833 0.99-5.368 7.136-8.545 16-8.545 25.588 0 23.511 19.119 42.664 42.665 42.664s42.665-19.159 42.665-42.664c0-23.51-19.119-42.664-42.665-42.664-13.024 0-24.676 5.856-32.512 15.072zM158.755 520.211c7.37-7.675 11.917-18.095 11.917-29.543 0-23.509-19.119-42.665-42.665-42.665s-42.665 19.16-42.665 42.665c0 23.509 19.119 42.663 42.665 42.663 11.465 0 21.893-4.544 29.558-11.925 0.406-0.393 0.799-0.794 1.189-1.195zM866.675 843.689l-0.8 0.845-0.844 0.8c-7.251 7.653-11.702 17.985-11.702 29.328 0 23.511 19.119 42.664 42.665 42.664s42.665-19.159 42.665-42.664c0-23.509-19.119-42.664-42.665-42.664-11.348 0-21.678 4.449-29.321 11.695zM831.996 618.662c-11.776 0-21.334-9.559-21.334-21.335v-618.654h-85.333v362.66c0 11.776-9.558 21.334-21.334 21.334h-127.999c-11.776 0-21.334-9.558-21.334-21.334v-362.66h-85.333v447.994c0 11.776-9.558 21.334-21.334 21.334h-127.999c-11.774 0-21.334-9.558-21.334-21.334v-447.994h-85.333v234.662c0 11.776-9.56 21.334-21.334 21.334h-127.999c-11.774 0-21.334-9.558-21.334-21.334v-234.662h-21.334c-11.774 0-21.334-9.558-21.334-21.334s9.56-21.334 21.334-21.334h981.322c11.776 0 21.334 9.558 21.334 21.334s-9.558 21.334-21.334 21.334h-21.334v618.654c0 11.778-9.558 21.335-21.334 21.335h-127.999zM853.33-21.329v597.325h85.333v-597.325h-85.333zM597.333 320.001h85.333v-341.33h-85.333v341.33zM85.34 192.003h85.333v-213.333h-85.333v213.333zM426.667-21.329h-85.333v426.66h85.333v-426.66zM597.333 618.662c0 23.511 19.119 42.664 42.665 42.664s42.665-19.159 42.665-42.664c0-23.509-19.119-42.664-42.665-42.664s-42.665 19.159-42.665 42.664z" />
<glyph unicode="&#xe908;" glyph-name="analytics2" d="M464 960h96c55.14 0 100-44.86 100-100v-824c0-55.142-44.86-100-100-100h-96c-55.14 0-100 44.858-100 100v824c0 55.14 44.86 100 100 100zM560 16c11.028 0 20 8.973 20 20v824c0 11.028-8.972 20-20 20h-96c-11.028 0-20-8.972-20-20v-824c0-11.027 8.972-20 20-20h96zM924 736h-96c-55.142 0-100-44.86-100-100v-600c0-55.142 44.858-100 100-100h96c55.142 0 100 44.858 100 100v600c0 55.14-44.858 100-100 100zM944 36c0-11.027-8.973-20-20-20h-96c-11.027 0-20 8.973-20 20v600c0 11.028 8.973 20 20 20h96c11.027 0 20-8.972 20-20v-600zM196 432h-96c-55.14 0-100-44.86-100-100v-296c0-55.142 44.86-100 100-100h96c55.14 0 100 44.858 100 100v296c0 55.14-44.86 100-100 100zM216 36c0-11.027-8.972-20-20-20h-96c-11.028 0-20 8.973-20 20v296c0 11.028 8.972 20 20 20h96c11.028 0 20-8.972 20-20v-296z" />
<glyph unicode="&#xe909;" glyph-name="calendar1" d="M938.688 864h-138.688v63.999c0 17.696-14.304 32.001-32.001 32.001s-32.001-14.304-32.001-32.001v-63.999h-192v63.999c0 17.696-14.336 32.001-32.001 32.001s-32.001-14.304-32.001-32.001v-63.999h-192v63.999c0 17.696-14.336 32.001-32.001 32.001s-32.001-14.304-32.001-32.001v-63.999h-138.656c-47.136 0-85.344-38.177-85.344-85.312v-757.343c0-47.136 38.209-85.344 85.344-85.344h853.343c47.136 0 85.312 38.209 85.312 85.344v757.343c0 47.136-38.177 85.312-85.312 85.312zM959.999 21.344c0-11.777-9.568-21.343-21.311-21.343h-853.343c-11.777 0-21.343 9.568-21.343 21.343v757.343c0 11.743 9.568 21.311 21.343 21.311h138.656v-63.999c0-17.696 14.336-32.001 32.001-32.001s32.001 14.304 32.001 32.001v63.999h192v-63.999c0-17.696 14.336-32.001 32.001-32.001s32.001 14.304 32.001 32.001v63.999h192v-63.999c0-17.696 14.304-32.001 32.001-32.001s32.001 14.304 32.001 32.001v63.999h138.688c11.743 0 21.311-9.568 21.311-21.311v-757.343zM352.001 576h-128v-96h128v96zM352.001 415.999h-128v-96h128v96zM352.001 256h-128v-96h128v96zM575.999 256h-128v-96h128v96zM575.999 415.999h-128v-96h128v96zM575.999 576h-128v-96h128v96zM800 256h-128v-96h128v96zM800 415.999h-128v-96h128v96zM800 576h-128v-96h128v96z" />
<glyph unicode="&#xe90a;" glyph-name="calendar2" d="M853.333 891.733h119.462c9.44 0 17.067-7.628 17.067-17.067v-921.599c0-9.435-7.626-17.067-17.067-17.067h-921.597c-9.438 0-17.067 7.632-17.067 17.067v921.599c0 9.438 7.628 17.067 17.067 17.067h119.466v51.2c0 9.438 7.628 17.067 17.067 17.067h119.466c9.438 0 17.067-7.628 17.067-17.067v-51.2h375.463v51.2c0 9.438 7.632 17.067 17.067 17.067h119.472c9.435 0 17.067-7.628 17.067-17.067v-51.2zM819.195 925.866h-85.333v-102.4h85.333v102.4zM290.131 925.866h-85.333v-102.4h85.333v102.4zM170.665 857.6h-102.4v-153.599h887.462v153.599h-102.395v-51.2c0-9.438-7.632-17.067-17.067-17.067h-119.472c-9.435 0-17.067 7.628-17.067 17.067v51.2h-375.463v-51.2c0-9.438-7.628-17.067-17.067-17.067h-119.466c-9.438 0-17.067 7.628-17.067 17.067v51.2zM68.265 669.866v-699.732h887.462v699.732h-887.462zM529.062 567.466h307.2v-494.933h-648.534v494.933h341.335zM648.528 533.333h-119.466v-119.466h119.466v119.466zM529.062 260.267h119.466v119.466h-119.466v-119.466zM494.929 379.734h-119.468v-119.466h119.468v119.466zM494.929 533.333h-119.468v-119.466h119.468v119.466zM341.326 533.333h-119.466v-119.466h119.466v119.466zM341.326 379.734h-119.466v-119.466h119.466v119.466zM221.86 106.667h119.466v119.466h-119.466v-119.466zM375.459 106.667h119.468v119.466h-119.468v-119.466zM529.062 106.667h119.466v119.466h-119.466v-119.466zM682.662 106.667h119.466v119.466h-119.466v-119.466zM682.662 260.267h119.466v119.466h-119.466v-119.466zM802.128 413.867v119.466h-119.466v-119.466h119.466z" />
<glyph unicode="&#xe90b;" glyph-name="bell1" d="M936.002 176.002h-40.002c-20.769 0-37.418 7.216-49.489 21.456-14.728 17.366-22.51 44.773-22.51 79.252v275.291c0 157.636-119.085 289.554-272.001 309.398v98.602h-80v-98.602c-152.914-19.844-272-151.76-272-309.398v-288.001c0-28.347-7.468-51.549-21.598-67.090-12.434-13.679-29.862-20.908-50.402-20.908h-40v-112.002h322.826c-1.83-7.71-2.826-15.739-2.826-23.998 0-57.35 46.654-104.002 104-104.002s104.002 46.652 104.002 104.002c0 8.258-1 16.288-2.831 23.998h322.831v112.002zM512 15.998c-13.234 0-24 10.77-24 24.004s10.766 23.998 24 23.998c13.234 0 24-10.764 24-23.998s-10.766-24.004-24-24.004zM238.416 143.998c27.21 30.431 41.584 71.897 41.584 120.001v288.001c0 126.134 102.526 230.144 228.604 231.974h6.792c126.080-1.83 228.606-105.84 228.606-231.974v-275.291c0-53.682 14.348-98.979 41.49-130.988 0.488-0.578 0.982-1.15 1.482-1.723h-548.556z" />
<glyph unicode="&#xe90c;" glyph-name="book" d="M1004.153 759.228c-0.070 0-0.135 0-0.2 0h-67.286v23.025c0.358 9.113-5.534 17.303-14.294 19.849-46.713 12.242-94.818 18.38-143.109 18.261-79.397 0-187.569-17.864-267.562-99.244-79.395 82.174-188.365 99.244-267.562 99.244-48.292 0.119-96.396-6.019-143.11-18.261-8.758-2.546-14.653-10.736-14.291-19.849v-22.826h-66.891c-10.962 0-19.849-8.887-19.849-19.849v-633.971c0-10.961 8.887-19.852 19.849-19.852 3.409 0.014 6.759 0.898 9.726 2.583 1.985 0.991 200.473 109.563 477.561 39.699h4.766c1.583-0.191 3.179-0.191 4.762 0 277.886 70.461 476.374-37.911 477.561-39.699 6.144-3.547 13.712-3.547 19.852 0 6.102 3.523 9.882 10.021 9.923 17.068v633.972c0 10.961-8.886 19.849-19.847 19.849zM39.698 137.165v582.365h47.439v-497.806c-0.124-10.961 8.662-19.949 19.623-20.075 1.071-0.009 2.143 0.061 3.203 0.223 41.062 6.27 82.519 9.588 124.055 9.923 57.537 1.001 114.833-7.657 169.509-25.605-123.472 14.932-248.713-1.946-363.829-49.026zM234.018 251.294c-36.103-0.079-72.163-2.397-107.978-6.945v522.222c38.646 8.61 78.11 13.003 117.703 13.1 74.235 0 176.654-17.070 247.712-97.259l0.596-494.434c-41.284 26.996-121.87 63.316-258.033 63.316zM531.749 682.413c71.061 79.395 173.48 97.259 247.715 97.259 39.592-0.116 79.053-4.508 117.704-13.1v-522.222c-35.617 4.589-71.48 6.973-107.385 7.145-135.368 0-216.152-36.324-258.034-63.316v494.234zM984.106 137.165c-115.363 47.211-240.891 64.088-364.623 49.026 54.933 18.013 112.5 26.671 170.301 25.605 41.798-0.233 83.521-3.482 124.849-9.723 10.84-1.648 20.959 5.809 22.602 16.645 0.163 1.061 0.237 2.132 0.223 3.202v497.61h47.439l-0.791-582.365z" />
<glyph unicode="&#xe90d;" glyph-name="dashboard" d="M986.452 594.311c0.447-1.112 0.768-2.254 0.987-3.404 23.561-58.672 36.561-122.613 36.561-189.448 0-116.056-37.548-226.988-110.932-317.44-3.416-5.12-8.536-6.828-13.656-6.828h-774.824c-5.12 0-10.24 1.708-13.654 6.828-73.388 90.452-110.934 201.384-110.934 317.44 0 139.526 56.586 266.464 147.918 359.056 0.646 0.964 1.402 1.888 2.27 2.756s1.792 1.622 2.756 2.27c46.6 45.966 101.898 83.122 163.13 108.696 0.936 0.66 1.96 1.228 3.074 1.674 1.11 0.444 2.252 0.768 3.402 0.984 58.672 23.562 122.614 36.562 189.45 36.562 139.529 0 266.468-56.586 359.056-147.916 0.963-0.648 1.89-1.402 2.755-2.27 0.87-0.868 1.624-1.792 2.271-2.756 45.968-46.6 83.121-101.898 108.698-163.13 0.661-0.936 1.229-1.958 1.671-3.074zM133.12 111.323h759.468c20.959 27.76 38.698 57.405 53.080 88.488l-47.96 20.741c-8.536 3.412-11.948 13.652-8.536 22.184 3.416 8.536 13.656 11.948 22.188 8.536l47.355-20.48c18.493 48.701 28.979 100.413 30.836 153.6h-119.152c-10.24 0-17.068 6.824-17.068 17.064s6.828 17.068 17.068 17.068h119.124c-1.825 51.298-11.804 100.615-28.728 146.656l-46.029-18.658c-1.997 0-3.412-0.586-4.585-1.071-0.829-0.343-1.536-0.635-2.239-0.635-6.828 0-13.656 3.414-15.36 10.24-3.412 8.532 0 18.772 8.532 22.186l46.964 19.040c-21.713 48.226-51.219 92.254-86.877 130.488l-35.179-35.18c-3.412-3.414-8.532-5.12-11.944-5.12-5.12 0-8.532 1.706-11.948 5.12-6.824 6.828-6.824 17.068 0 23.894l35.179 35.18c-36.492 34.032-78.271 62.446-123.932 83.844l-20.475-47.344c-1.704-5.12-8.532-10.24-15.36-10.24-1.704 0-5.12 0-6.824 1.706-8.536 3.412-11.948 13.652-8.536 22.186l20.271 46.872c-47.96 18.464-99.575 29.382-153.391 31.296v-119.128c0-10.24-6.824-17.066-17.064-17.066s-17.068 6.826-17.068 17.066v119.126c-51.3-1.824-100.616-11.802-146.658-28.728l18.658-46.024c3.412-8.532 0-18.772-8.534-22.186-3.412-1.706-5.12-1.706-6.826-1.706-6.826 0-13.654 3.414-15.36 10.24l-19.040 46.964c-48.226-21.714-92.254-51.22-130.488-86.876l35.18-35.18c6.826-6.828 6.826-17.068 0-23.894-3.412-3.414-6.826-5.12-11.946-5.12s-8.532 1.706-11.946 5.12l-35.18 35.18c-34.032-36.492-62.446-78.272-83.844-123.934l47.344-20.474c8.534-3.412 11.948-13.652 8.534-22.186-3.414-6.826-8.534-10.24-15.36-10.24-1.706 0-5.12 0-6.826 1.706l-46.87 20.268c-18.464-47.958-29.382-99.573-31.296-153.389h119.126c10.24 0 17.066-6.828 17.066-17.068s-6.826-17.064-17.066-17.064h-119.148c1.768-50.697 11.408-100.054 28.556-146.739l46.22 18.739c8.532 3.412 18.772 0 22.186-8.536 3.412-8.532 0-18.772-8.534-22.184l-47.15-19.116c15.146-33.545 34.312-65.471 57.39-95.232zM592.212 490.673l81.92 49.492c6.824 3.414 15.36 3.414 20.48-3.414 5.12-6.826 6.828-13.654 3.412-20.48l-49.492-81.918c-10.673-18.143-20.010-36.952-29.263-55.594-5.548-11.171-11.064-22.281-16.817-33.154v0c-5.12-10.24-10.24-20.48-13.656-29.012-15.36-29.012-44.372-47.788-76.8-47.788-6.824 0-13.652 0-20.48 1.708-30.719 6.824-56.319 32.424-63.144 63.144-8.534 39.256 10.24 78.508 46.081 97.28 10.24 5.12 20.48 10.24 29.012 13.656 29.012 13.652 59.732 29.012 88.748 46.080zM571.732 360.965c13.652 30.72 29.012 61.44 47.784 92.16l13.656 22.188-22.188-13.656c-23.235-13.666-48.659-26.242-73.644-38.595-6.214-3.072-12.395-6.13-18.516-9.188-4.212-2.109-8.42-3.924-12.516-5.693-5.855-2.527-11.473-4.948-16.496-7.964-22.188-10.24-32.427-34.132-27.307-58.024 3.411-18.772 18.771-34.132 37.547-37.548 23.892-5.12 47.784 5.12 58.024 27.308 1.308 2.616 2.616 5.12 3.896 7.568 3.728 7.14 7.219 13.819 9.761 21.443z" />
<glyph unicode="&#xe90e;" glyph-name="chat" d="M874.668 960h-597.334c-82.348 0-149.334-66.986-149.334-149.334v-383.998c0-82.348 66.986-149.336 149.334-149.336h375.168l207.062-207.104c4.096-4.054 9.556-6.228 15.104-6.228 2.728 0 5.502 0.554 8.15 1.62 7.978 3.286 13.182 11.096 13.182 19.712v193.494c72.28 10.412 128 72.746 128 147.842v383.998c0 82.348-66.988 149.334-149.332 149.334zM981.332 426.668c0-58.838-47.872-106.668-106.664-106.668-11.776 0-21.336-9.556-21.336-21.332v-161.839l-176.896 176.943c-4.008 3.966-9.43 6.228-15.104 6.228h-383.998c-58.794 0-106.666 47.83-106.666 106.668v383.998c0 58.838 47.872 106.666 106.666 106.666h597.334c58.792 0 106.664-47.83 106.664-106.666v-383.998zM668.672 192h-306.006c-5.674 0-11.094-2.262-15.104-6.274l-176.896-176.896v161.834c0 11.776-9.558 21.336-21.334 21.336-58.794 0-106.666 47.83-106.666 106.664v384.001c0 30.294 12.928 59.306 35.542 79.446 8.79 7.894 9.514 21.376 1.664 30.122-7.894 8.79-21.29 9.558-30.122 1.706-31.616-28.286-49.75-68.862-49.75-111.274v-384.001c0-75.092 55.722-137.43 128-147.838v-193.494c0-8.62 5.206-16.426 13.184-19.712 2.646-1.066 5.418-1.624 8.15-1.624 5.546 0 11.008 2.178 15.062 6.232l207.104 207.104h297.172c11.776 0 21.336 9.556 21.336 21.332s-9.56 21.336-21.336 21.336z" />
<glyph unicode="&#xe90f;" glyph-name="lock" d="M0 448c0 282.317 229.683 512 512 512s512-229.683 512-512c0-282.317-229.683-512-512-512s-512 229.683-512 512zM108.953 447.997c0-222.253 180.824-403.054 403.066-403.054s403.067 180.802 403.067 403.054-180.824 403.056-403.067 403.056c-222.242 0-403.066-180.803-403.066-403.056zM778.957 463.811h-230.13v276.656c0 23.282-18.878 42.158-42.163 42.158s-42.165-18.877-42.165-42.158v-318.814c0-23.28 18.88-42.157 42.165-42.157h272.293c23.285 0 42.163 18.877 42.163 42.157 0 23.282-18.878 42.158-42.163 42.158z" />
<glyph unicode="&#xe910;" glyph-name="clip" d="M281.6 172.8c-153.6 0-281.6 128-281.6 281.6s128 281.6 281.6 281.6h537.6c112.64 0 204.8-92.16 204.8-204.8s-92.16-204.8-204.8-204.8h-435.2c-71.68 0-128 56.32-128 128s56.32 128 128 128h384v-76.8h-384c-30.72 0-51.2-20.48-51.2-51.2s20.48-51.2 51.2-51.2h435.2c71.68 0 128 56.32 128 128s-56.32 128-128 128h-537.6c-112.64 0-204.8-92.16-204.8-204.8s92.16-204.8 204.8-204.8h486.4v-76.8h-486.4z" />
<glyph unicode="&#xe911;" glyph-name="lines" horiz-adv-x="926" d="M487.607 935.373c0 13.458 10.912 24.369 24.369 24.369h389.898c13.456 0 24.369-10.91 24.369-24.369s-10.912-24.369-24.369-24.369h-389.898c-13.456 0-24.369 10.91-24.369 24.369zM195.183 691.687c0 13.458 10.91 24.369 24.369 24.369h536.11c13.456 0 24.369-10.91 24.369-24.369s-10.912-24.369-24.369-24.369h-536.11c-13.458 0-24.369 10.91-24.369 24.369zM24.602 472.369c-13.458 0-24.369-10.912-24.369-24.369s10.91-24.369 24.369-24.369h682.323c13.456 0 24.369 10.912 24.369 24.369s-10.912 24.369-24.369 24.369h-682.323zM195.183 204.313c0 13.456 10.91 24.369 24.369 24.369h536.11c13.456 0 24.369-10.912 24.369-24.369s-10.912-24.369-24.369-24.369h-536.11c-13.458 0-24.369 10.912-24.369 24.369zM511.975-15.004c-13.456 0-24.369-10.912-24.369-24.369s10.912-24.369 24.369-24.369h389.898c13.456 0 24.369 10.912 24.369 24.369s-10.912 24.369-24.369 24.369h-389.898z" />
<glyph unicode="&#xe912;" glyph-name="external-link" d="M786.291 380.138h-36.574c-5.342 0-9.726-1.725-13.136-5.189-3.438-3.445-5.15-7.859-5.15-13.235v-184.24c0-25.336-8.946-47.018-26.85-65.061-17.902-18.038-39.43-27.051-64.574-27.051h-475.438c-25.142 0-46.668 9.013-64.575 27.051-17.903 18.040-26.854 39.723-26.854 65.061v479.030c0 25.333 8.949 47.013 26.854 65.054 17.907 18.042 39.433 27.059 64.575 27.059h402.283c5.342 0 9.726 1.731 13.15 5.182 3.424 3.454 5.136 7.864 5.136 13.243v36.854c0 5.368-1.712 9.787-5.136 13.235-3.424 3.455-7.808 5.179-13.15 5.179h-402.283c-45.328 0-84.093-16.218-116.289-48.651-32.184-32.43-48.279-71.49-48.279-117.162v-479.034c0-45.67 16.096-84.734 48.281-117.155 32.196-32.435 70.96-48.661 116.29-48.661h475.435c45.326 0 84.094 16.226 116.286 48.661 32.194 32.421 48.29 71.483 48.29 117.155v184.235c0 5.382-1.714 9.798-5.152 13.25-3.429 3.464-7.811 5.189-13.139 5.189zM1013.136 885.062c-7.24 7.294-15.822 10.938-25.718 10.938h-292.571c-9.904 0-18.48-3.644-25.714-10.938-7.238-7.29-10.864-15.927-10.864-25.907s3.626-18.619 10.864-25.913l100.568-101.331-372.566-375.392c-3.816-3.838-5.717-8.254-5.717-13.235 0-5 1.907-9.414 5.717-13.251l65.142-65.629c3.81-3.837 8.192-5.75 13.144-5.75s9.338 1.91 13.144 5.75l372.57 375.387 100.576-101.33c7.234-7.294 15.808-10.942 25.712-10.942 9.906 0 18.48 3.648 25.722 10.942 7.24 7.291 10.856 15.926 10.856 25.907v294.787c-0.002 9.986-3.63 18.617-10.864 25.907z" />
<glyph unicode="&#xe913;" glyph-name="files" d="M858.155 960h-565.614c-40.264 0-73.030-32.777-73.030-73.030v-46.64h-66.482c-40.264 0-73.028-32.777-73.028-73.030v-758.269c0-40.253 32.764-73.030 73.028-73.030h565.634c40.266 0 73.029 32.778 73.029 73.030v46.64h66.464c40.27 0 73.030 32.778 73.030 73.029v758.271c0 40.253-32.76 73.030-73.030 73.030zM733.272 9.030c0-8.045-6.568-14.608-14.61-14.608h-565.634c-8.041 0-14.608 6.565-14.608 14.608v758.269c0 8.051 6.567 14.608 14.608 14.608h66.482v-653.206c0-40.251 32.766-73.029 73.030-73.029h440.731v-46.642zM872.765 128.699c0-8.043-6.552-14.608-14.61-14.608h-565.614c-8.059 0-14.605 6.565-14.605 14.608v758.271c0 8.049 6.547 14.608 14.605 14.608h565.613c8.059 0 14.61-6.56 14.61-14.608v-758.271h0.002zM789.56 778.57h-428.43c-16.133 0-29.213-13.091-29.213-29.21 0-16.149 13.083-29.213 29.213-29.213h428.426c16.134 0 29.211 13.066 29.211 29.213 0.005 16.117-13.077 29.21-29.206 29.21zM789.56 639.528h-428.43c-16.133 0-29.213-13.088-29.213-29.21 0-16.146 13.083-29.214 29.213-29.214h428.426c16.134 0 29.211 13.070 29.211 29.214 0.005 16.12-13.077 29.21-29.206 29.21zM789.56 500.49h-428.43c-16.133 0-29.213-13.093-29.213-29.214 0-16.144 13.083-29.21 29.213-29.21h428.426c16.134 0 29.211 13.066 29.211 29.21 0.005 16.122-13.077 29.214-29.206 29.214zM789.56 361.448h-428.43c-16.133 0-29.213-13.094-29.213-29.21 0-16.154 13.083-29.213 29.213-29.213h428.426c16.134 0 29.211 13.064 29.211 29.213 0.005 16.115-13.077 29.21-29.206 29.21z" />
<glyph unicode="&#xe914;" glyph-name="group3" d="M785.928 560.809c49.918 41.403 81.772 103.875 81.772 173.647 0 124.365-101.183 225.545-225.549 225.545s-225.546-101.181-225.546-225.545c0-16.256 1.744-32.11 5.029-47.4-12.844 2.28-26.056 3.474-39.545 3.474-124.367 0-225.545-101.181-225.545-225.545 0-69.766 31.846-132.231 81.758-173.637-139.627-56.924-238.305-194.132-238.305-353.979h80.018c0 166.559 135.509 302.069 302.073 302.069 124.367 0 225.545 101.181 225.545 225.545 0 16.256-1.744 32.112-5.028 47.402 12.844-2.28 26.056-3.474 39.544-3.474 98.157 0 185.489-47.088 240.699-119.833l54.225 60.372c-40.078 48.636-91.933 87.21-151.145 111.359zM382.089 319.456c-80.242 0-145.527 65.282-145.527 145.527s65.284 145.527 145.527 145.527c80.242 0 145.527-65.284 145.527-145.527s-65.284-145.527-145.527-145.527zM642.151 588.931c-80.242 0-145.527 65.282-145.527 145.526s65.284 145.526 145.527 145.526c80.241 0 145.526-65.282 145.526-145.527s-65.282-145.525-145.526-145.525zM964.461 360.193l-277.925-309.445-156.84 149.303-55.168-57.961 216.505-206.085 332.963 370.719-59.534 53.469z" />
<glyph unicode="&#xe915;" glyph-name="group1" d="M640 576.001c0-81.067-38.4-157.865-102.4-204.801 123.73-55.465 213.335-170.665 230.4-307.2h-85.335c-21.335 145.065-149.335 256-298.665 256-149.333 0-277.332-110.935-298.665-256h-85.334c17.066 136.535 106.667 251.735 230.399 307.2-64.001 46.935-102.399 123.734-102.399 204.801 0 140.798 115.201 255.999 255.999 255.999 140.801 0 256.001-115.201 256.001-255.999zM213.334 576.001c0-93.866 76.798-170.665 170.666-170.665s170.665 76.799 170.665 170.665c0 93.866-76.8 170.665-170.665 170.665s-170.666-76.799-170.666-170.665zM938.665 533.336c0-55.467-21.335-110.936-55.465-153.601 85.33-42.665 140.8-132.265 140.8-226.13h-85.335c0 81.065-59.73 149.335-136.53 166.4-21.335 4.27-34.135 21.335-34.135 42.665 0 12.8 4.27 25.6 17.065 34.135 38.4 29.865 68.27 81.065 68.27 136.532 0 81.065-55.47 153.599-153.6 170.665l-0.010 0.024c-4.265 12.791-8.53 25.585-17.060 38.375v0.009c-8.535 17.063-17.070 34.127-29.865 46.924 149.335 17.066 285.865-102.399 285.865-255.999z" />
<glyph unicode="&#xe916;" glyph-name="download" d="M792.664 551.032l-283.419-305.947-284.162 306.371-75.080-69.635 286.989-309.418c39.544-42.634 105.152-42.485 144.797 0.31l285.995 308.728-75.12 69.59zM457.592 960h102.416v-716.802h-102.416v716.802zM48 38.395h921.592v-102.395h-921.592v102.395z" />
<glyph unicode="&#xe917;" glyph-name="home1" d="M1000.632 600.428l-460.92 349.869c-12.268 9.318-29.192 9.318-41.458 0l-460.921-349.869c-8.627-6.55-13.703-16.795-13.703-27.672v-589.060c0-19.141 15.415-34.657 34.43-34.657h921.846c19.015 0 34.43 15.516 34.43 34.657v589.060c-0.005 10.876-5.076 21.121-13.704 27.672zM575.368 18.36h-112.774v251.313h112.774v-251.313zM945.472 18.36h-301.25v285.972c0 19.141-15.414 34.657-34.43 34.657h-181.628c-19.015 0-34.43-15.516-34.43-34.657v-285.972h-301.248v537.123l426.49 323.733 426.49-323.733v-537.123h0.006z" />
<glyph unicode="&#xe918;" glyph-name="home2" d="M512 936.081l-512-444.632 52.412-60.352 47.934 41.628v-392.901c0-66.116 53.786-119.904 119.9-119.904h223.812v391.672h139.882v-391.672h219.818c66.109 0 119.897 53.787 119.897 119.904v392.899l47.937-41.628 52.408 60.352-512 444.634zM843.721 79.824c0-22.043-17.927-39.97-39.963-39.97h-139.884v391.671h-299.75v-391.671h-143.88c-22.038 0-39.966 17.927-39.966 39.963v462.322l331.722 288.074 331.721-288.074v-462.315z" />
<glyph unicode="&#xe919;" glyph-name="image" d="M884.363 843.636c12.853 0 23.274-10.42 23.274-23.273v-744.727c0-12.853-10.421-23.274-23.274-23.274h-744.727c-12.853 0-23.273 10.421-23.273 23.274v744.727c0 12.853 10.42 23.273 23.273 23.273h744.727zM139.636 960c-77.119 0-139.636-62.517-139.636-139.636v-744.727c0-77.12 62.517-139.637 139.636-139.637h744.727c77.12 0 139.637 62.517 139.637 139.637v744.727c0 77.119-62.517 139.636-139.637 139.636h-744.727zM363.901 339.394l-177.718-217.211h651.635l-207.338 279.272-148.099-217.211-118.48 155.15z" />
<glyph unicode="&#xe91a;" glyph-name="close" d="M602.562 447.989l402.675 402.693c25.018 24.997 25.018 65.557 0 90.554-25.018 25.019-65.533 25.019-90.55 0l-402.675-402.692-402.697 402.692c-25.018 25.019-65.533 25.019-90.551 0-25.018-24.997-25.018-65.557 0-90.554l402.696-402.693-402.696-402.691c-25.018-24.998-25.018-65.557 0-90.555 12.509-12.488 28.903-18.742 45.275-18.742s32.766 6.254 45.275 18.765l402.697 402.691 402.675-402.691c12.509-12.51 28.902-18.765 45.275-18.765s32.766 6.254 45.275 18.765c25.018 24.997 25.018 65.557 0 90.554l-402.675 402.67z" />
<glyph unicode="&#xe91b;" glyph-name="n" d="M512 16c238.586 0 432 193.414 432 432s-193.414 432-432 432c-238.587 0-432-193.413-432-432s193.413-432 432-432zM0 448c0 282.77 229.23 512 512 512s512-229.23 512-512c0-282.771-229.229-512-512-512s-512 229.229-512 512zM593.278 232.294v177.471h-162.844v-177.471h-87.188v411.19h87.188v-161.156h162.844v161.156h86.908v-411.19h-86.908z" />
<glyph unicode="&#xe91c;" glyph-name="link" d="M949.366 889.4l4.030-4.042c94.139-94.139 94.139-248.179 0.005-342.314l-152.603-152.603c0.709 44.986-7.41 90.077-24.539 132.386l98.685 98.685c51.101 51.098 51.101 134.272 0 185.389l-4.042 4.024c-51.109 51.118-134.266 51.118-185.382 0l-218.13-218.111c-51.114-51.118-51.114-134.291 0-185.389l4.043-4.042c7.992-7.989 16.816-14.563 26.117-20.056l-79.846-79.854c-8.59 6.534-16.904 13.61-24.736 21.458l-4.029 4.027c-94.131 94.133-94.131 248.176 0 342.307l218.106 218.135c94.128 94.131 248.176 94.131 342.322 0zM606.301 592.507c8.592-6.518 16.906-13.608 24.738-21.44l4.024-4.024c94.131-94.13 94.131-248.194 0-342.325l-218.109-218.117c-94.136-94.123-248.174-94.123-342.326 0l-4.026 4.032c-94.136 94.146-94.136 248.194 0 342.322l152.602 152.597c-0.709-44.982 7.405-90.080 24.538-132.382l-98.688-98.686c-51.098-51.112-51.098-134.266 0-185.387l4.042-4.042c51.111-51.106 134.27-51.106 185.387 0l218.131 218.133c51.115 51.114 51.115 134.269 0 185.387l-4.042 4.040c-7.995 7.987-16.816 14.566-26.118 20.062l79.848 79.83z" />
<glyph unicode="&#xe91d;" glyph-name="delete" d="M636.347 872.255h220.647c17.756 0 32.149-14.48 32.149-32.341v-101.592h-758.749v101.595c0 17.861 14.392 32.34 32.149 32.34h220.648v41.958c0 5.959 4.803 10.792 10.726 10.792h231.7c5.928 0 10.729-4.833 10.729-10.792v-41.959zM270.657-98.994c-27.459 0-50.038 21.781-51.187 49.38l-34.156 725.27h648.963l-34.156-725.27c-1.148-27.6-23.727-49.38-51.187-49.38h-478.278zM638.799 516.441c-11.494 0-20.81-9.373-20.81-20.93v-414.364c0-11.563 9.321-20.925 20.81-20.925h33.284c11.494 0 20.809 9.366 20.809 20.925v414.364c0 11.56-9.323 20.93-20.809 20.93h-33.284zM493.155 516.441c-11.492 0-20.808-9.373-20.808-20.93v-414.364c0-11.563 9.318-20.925 20.808-20.925h33.282c11.494 0 20.807 9.366 20.807 20.925v414.364c0 11.56-9.321 20.93-20.807 20.93h-33.282zM347.509 516.441c-11.491 0-20.807-9.373-20.807-20.93v-414.364c0-11.563 9.318-20.925 20.807-20.925h33.286c11.492 0 20.808 9.366 20.808 20.925v414.364c0 11.56-9.318 20.93-20.808 20.93h-33.286z" />
<glyph unicode="&#xe91e;" glyph-name="dots" d="M516.363 723.693c64.266 0 116.365 52.899 116.365 118.153s-52.099 118.154-116.365 118.154c-64.266 0-116.363-52.899-116.363-118.154s52.098-118.153 116.363-118.153zM516.363 329.845c64.266 0 116.365 52.899 116.365 118.154s-52.099 118.154-116.365 118.154c-64.266 0-116.363-52.899-116.363-118.154s52.098-118.154 116.363-118.154zM516.363-64c64.266 0 116.365 52.901 116.365 118.155s-52.099 118.154-116.365 118.154c-64.266 0-116.363-52.899-116.363-118.154s52.098-118.155 116.363-118.155z" />
<glyph unicode="&#xe91f;" glyph-name="user2" d="M277.935 725.942c0 129.075 105.026 234.064 234.065 234.064 129.026 0 234.064-104.987 234.064-234.064s-105.038-234.064-234.064-234.064c-129.039 0-234.065 104.986-234.065 234.064zM320.486 725.942c0-105.585 85.926-191.508 191.514-191.508 105.591 0 191.5 85.923 191.5 191.508s-85.91 191.506-191.5 191.506c-105.589 0-191.514-85.923-191.514-191.506zM22.595-42.716c0 269.857 219.552 489.41 489.405 489.41s489.405-219.512 489.416-489.41c0-11.746-9.534-21.279-21.284-21.279-11.74 0-21.279 9.534-21.279 21.279 0 246.408-200.44 446.852-446.852 446.852-246.402 0-446.842-200.445-446.842-446.852 0-11.746-9.537-21.279-21.289-21.279-11.737 0-21.275 9.534-21.275 21.279z" />
<glyph unicode="&#xe920;" glyph-name="hide" d="M883.236 582.209c-36.328 36.324-77.041 66.612-120.91 90.552l165.171 165.172c6.764 6.763 6.764 17.695 0 24.458s-17.691 6.764-24.456 0l-173.339-173.319c-67.976 31.135-142.407 47.62-219.415 47.62-140.887 0-273.332-54.85-372.947-154.482l-137.341-137.341 140.766-140.764c34.992-34.991 74.101-64.331 116.134-87.835l-158.184-158.184c-6.763-6.764-6.763-17.697 0-24.462 3.373-3.373 7.801-5.066 12.23-5.066s8.856 1.693 12.229 5.066l165.933 165.936c69.362-32.678 145.643-49.923 224.588-49.923 140.888 0 273.333 54.85 372.944 154.485l137.361 137.356-140.764 140.731zM282.309 241.658c-42.568 22.697-82.006 51.826-117.085 86.901l-116.307 116.309 112.899 112.9c93.077 93.077 216.839 144.346 348.471 144.346 67.511 0 132.893-13.561 193.194-39.265l-421.173-421.191zM862.184 328.559c-93.076-93.076-216.841-144.342-348.471-144.342-69.449 0-136.649 14.408-198.366 41.544l421.379 421.381c44.454-23.057 85.637-52.964 122.049-89.393l116.308-116.307-112.899-112.885zM511.512 668.539c-123.987 0-224.865-100.878-224.865-224.865 0-43.987 12.886-84.929 34.802-119.627l309.69 309.69c-34.698 21.916-75.64 34.802-119.627 34.802zM511.521 218.829c-45.405 0-87.645 13.631-123.036 36.858l311.039 311.041c23.233-35.39 36.864-77.63 36.864-123.036 0-123.987-100.882-224.863-224.867-224.863z" />
<glyph unicode="&#xe921;" glyph-name="logout1-right" d="M903.494-63.72h-783.563c-66.135 0-119.936 53.802-119.936 119.934v783.564c0 66.135 53.801 119.936 119.931 119.936h783.568c66.132 0 119.934-53.801 119.934-119.936v-159.908h-79.956v159.908c0 22.047-17.934 39.982-39.978 39.982h-783.568c-22.042 0-39.977-17.935-39.977-39.982v-783.564c0-22.044 17.935-39.978 39.977-39.978h783.568c22.044 0 39.978 17.934 39.978 39.978v159.912h79.956v-159.912c0-66.132-53.802-119.934-119.934-119.934zM870.948 408.027h-575.114v79.955h575.114l-151.914 151.916 56.536 56.535 248.43-248.428-248.43-248.43-56.536 56.536 151.914 151.916z" />
<glyph unicode="&#xe922;" glyph-name="bell2" d="M935.64 96.296l-73.3 122.113c-33.792 56.362-51.67 120.875-51.67 186.625v106.967c0 164.651-134.019 298.667-298.669 298.667s-298.667-134.017-298.667-298.667v-106.967c0-65.75-17.878-130.263-51.67-186.625l-73.302-122.113c-3.968-6.568-4.054-14.806-0.298-21.462 3.798-6.698 10.922-10.836 18.602-10.836h810.67c7.68 0 14.806 4.138 18.604 10.836 3.756 6.661 3.672 14.895-0.298 21.462zM144.34 106.666l53.888 89.814c37.802 62.976 57.77 135.081 57.77 208.553v106.967c0 141.185 114.817 256.001 256.001 256.001 141.187 0 256.001-114.817 256.001-256.001v-106.967c0-73.472 19.968-145.577 57.73-208.553l53.928-89.814h-735.32zM512 960.002c-47.062 0-85.334-38.272-85.334-85.334v-85.334c0-11.774 9.558-21.332 21.334-21.332s21.332 9.558 21.332 21.334v85.332c0 23.552 19.116 42.666 42.668 42.666s42.668-19.114 42.668-42.666v-85.334c0-11.774 9.556-21.332 21.332-21.332s21.332 9.558 21.332 21.334v85.332c0 47.062-38.27 85.334-85.332 85.334zM604.332 96.133c-6.018 10.152-19.032 13.48-29.226 7.638-10.198-5.976-13.615-19.074-7.638-29.226 5.544-9.43 8.574-20.736 8.574-31.874 0-35.286-28.714-64-64-64s-64 28.714-64 64c0 11.138 3.030 22.444 8.576 31.874 5.93 10.198 2.518 23.254-7.638 29.226-10.282 5.846-23.254 2.518-29.226-7.638-9.43-16.128-14.422-34.602-14.422-53.462 0.002-58.838 47.83-106.669 106.669-106.669s106.669 47.83 106.753 106.669c0 18.86-4.99 37.334-14.42 53.462z" />
<glyph unicode="&#xe923;" glyph-name="pencil" d="M0 149.333l629.333 629.334 213.334-213.334-629.334-629.333h-213.333v213.333zM1008 730.667l-104-104-213.333 213.333 104 104c10.666 10.667 24 16 40 16s29.333-5.333 40-16l133.333-133.333c10.667-10.667 16-24 16-40s-5.333-29.334-16-40z" />
<glyph unicode="&#xe924;" glyph-name="photo" d="M938.665 789.334h-136.53c-28.278 0-51.2 22.925-51.2 51.2v34.133c-0.061 47.109-38.226 85.275-85.335 85.334h-307.2c-47.108-0.058-85.275-38.225-85.334-85.334v-34.133c0-28.275-22.925-51.2-51.2-51.2v17.066c0 28.275-22.925 51.2-51.2 51.2h-17.066c-28.275 0-51.2-22.925-51.2-51.2v-17.066h-17.066c-47.109-0.058-85.275-38.225-85.334-85.334v-682.664c0.058-47.109 38.225-85.279 85.334-85.335h853.33c47.109 0.056 85.279 38.226 85.335 85.335v682.664c-0.056 47.108-38.226 85.275-85.335 85.334zM136.534 806.4c0 9.425 7.642 17.066 17.066 17.066h17.066c9.425 0 17.067-7.642 17.067-17.066v-17.066h-51.2v17.066zM989.865 21.335c0-28.278-22.922-51.2-51.2-51.2h-853.33c-28.275 0-51.2 22.922-51.2 51.2v682.664c0 28.275 22.925 51.2 51.2 51.2h136.533c47.109 0.058 85.275 38.225 85.334 85.334v34.133c0 28.275 22.925 51.2 51.2 51.2h307.2c28.273 0 51.2-22.925 51.2-51.2v-34.133c0.056-47.109 38.226-85.275 85.335-85.334h136.53c28.278 0 51.2-22.925 51.2-51.2v-682.664zM512 738.133c-197.942 0-358.4-160.459-358.4-358.398 0-197.944 160.458-358.4 358.4-358.4 197.939 0 358.4 160.456 358.4 358.4-0.225 197.839-160.558 358.173-358.4 358.398zM512 55.465c-179.091 0-324.266 145.178-324.266 324.27 0 179.089 145.175 324.264 324.266 324.264s324.265-145.175 324.265-324.264c-0.2-179.011-145.254-324.070-324.265-324.27zM512 669.867c-160.233 0-290.133-129.9-290.133-290.132 0-160.236 129.9-290.135 290.133-290.135 160.236 0 290.135 129.9 290.135 290.135-0.174 160.157-129.976 289.957-290.135 290.132zM512 123.735c-141.383 0-255.999 114.616-255.999 256 0 141.382 114.617 255.999 255.999 255.999 141.384 0 256-114.617 256-255.999-0.159-141.317-114.683-255.841-256-256zM904.535 721.067c-28.278 0-51.2-22.925-51.2-51.2s22.922-51.2 51.2-51.2c28.273 0 51.2 22.925 51.2 51.2s-22.927 51.2-51.2 51.2zM904.535 652.801c-9.426 0-17.070 7.642-17.070 17.066s7.644 17.067 17.070 17.067c9.421 0 17.065-7.642 17.065-17.067s-7.644-17.066-17.065-17.066z" />
<glyph unicode="&#xe925;" glyph-name="pin" d="M101.769 549.77c0 226.2 184.029 410.23 410.23 410.23 226.203 0 410.229-184.030 410.229-410.232v-11.34c0-114.4-65.591-247.71-194.949-396.229-93.772-107.663-186.238-182.736-190.128-185.876l-25.152-20.323-25.152 20.323c-3.888 3.147-96.354 78.22-190.129 185.883-129.361 148.511-194.948 281.824-194.948 396.224v11.34zM511.999 40.025c81.084 71.045 330.187 305.073 330.187 498.403v11.34c0 182.064-148.125 330.186-330.187 330.186-182.064 0-330.186-148.122-330.186-330.186v-11.34c0-193.316 249.080-427.338 330.186-498.403zM321.894 549.771c0 104.824 85.282 190.106 190.106 190.106 104.826 0 190.103-85.281 190.103-190.106s-85.279-190.105-190.103-190.105c-104.823 0-190.106 85.281-190.106 190.105zM401.938 549.771c0-60.688 49.374-110.062 110.062-110.062s110.062 49.374 110.062 110.062c0 60.688-49.374 110.062-110.062 110.062s-110.062-49.374-110.062-110.062z" />
<glyph unicode="&#xe926;" glyph-name="megaphone" d="M964.205 925.354c-3.495-1.992-349.713-197.566-588.212-200.962-1.313 0.13-2.645 0.202-3.994 0.202h-252c-66.168 0-120-53.832-120-120v-138c0-52.146 33.444-96.606 80-113.12v-216.879c0-110.285 89.719-200.001 199.999-200.001h40v254h80v96h-80v60h52c1.886 0 3.726 0.176 5.542 0.428 238.868-3.892 584.349-183.994 587.837-185.831l58.621-30.822v829.029l-59.795-34.044zM240 23.45c-46.562 16.507-80 60.996-80 113.145v209.999h80v-323.144zM332 426.594h-212c-22.056 0-39.999 17.944-39.999 39.999v138c0 22.056 17.944 39.999 39.999 39.999h212v-217.999zM943.998 261.004c-106.899 50.744-339.146 150.92-531.998 164.528v220.496c192.704 14.67 424.444 122.606 531.998 177.796v-562.82z" />
<glyph unicode="&#xe927;" glyph-name="plus" d="M968.427 519.443h-384.987v384.991c0 17.538-23.814 55.566-71.442 55.566s-71.443-38.030-71.443-55.566v-384.992h-384.989c-17.536 0.002-55.566-23.813-55.566-71.438s38.030-71.442 55.566-71.442h384.993v-384.992c0-17.534 23.813-55.566 71.442-55.566s71.442 38.032 71.442 55.566v384.992h384.992c17.534 0 55.566 23.813 55.566 71.442s-38.037 71.44-55.573 71.44z" />
<glyph unicode="&#xe928;" glyph-name="play" d="M127.999 822.313v-749.038c0-65.253 61.971-130.443 124.485-136.738 3.603-0.373 9.701-0.538 13.283-0.538 47.018 0 88.458 29.707 120.701 53.555 5.635 4.141 11.654 8.157 16.806 11.718 45.426 31.59 90.55 65.293 133.883 97.899 37.437 28.134 76.302 57.261 114.845 84.566 35.765 25.36 71.309 51.238 106.733 77.094l38.402 27.989c61.408 43.061 114.482 80.262 114.482 159.032 0 81.71-64.165 124.854-114.482 158.64-7.547 5.506-15.275 10.971-23.005 16.437-9.016 6.376-18.054 12.752-26.829 19.232-77.368 57.2-153.166 113.032-230.171 167.375-10.667 7.536-21.414 15.216-32.222 22.938-28.158 20.143-57.302 40.969-86.304 60.118-6.824 4.513-14.090 10.268-21.798 16.313-29.022 22.772-65.15 51.092-108.926 51.092-17.53 0-39.408-4.658-55.046-13.787-36.813-21.53-84.835-66.888-84.835-123.901zM208.506 822.313c0 16.292 22.2 39.064 44.098 51.858 3.523 2.070 9.198 3.002 12.781 3.002 16.586 0 41.986-18.922 61.387-34.138 9.318-7.308 18.738-14.201 27.715-20.122 27.774-18.363 56.597-38.733 84.19-58.462 10.93-7.805 21.938-15.568 32.746-23.206 76.362-53.888 151.858-109.43 228.843-166.341 9.218-6.811 18.779-13.539 28.258-20.246 7.408-5.258 14.834-10.475 23.307-16.624 54.826-36.848 79.259-58.627 79.259-90.198 0-30.866-15.92-46.165-79.843-91.005l-39.045-28.466c-35.102-25.608-70.243-51.299-105.726-76.41-39.469-27.99-78.637-57.408-116.515-85.893-42.77-32.15-86.989-65.398-131.206-96.181-5.717-3.976-11.755-8.426-18.034-13.064-22.885-16.914-51.384-37.987-72.477-37.987-0.966 0-6.944 0.042-7.931 0.144-21.435 2.154-51.846 31.613-51.846 54.342v748.998h0.040z" />
<glyph unicode="&#xe929;" glyph-name="settings" d="M1024 515.478v-134.959l-136.392-36.278c-8.504-30.799-20.81-60.379-36.776-88.385l69.748-121.144-95.293-95.297-121.144 69.753c-28.006-15.965-57.586-28.272-88.381-36.78l-36.282-136.387h-134.962l-36.28 136.392c-30.794 8.504-60.376 20.815-88.38 36.78l-121.148-69.753-95.292 95.293 69.752 121.149c-15.964 28.006-28.274 57.586-36.778 88.385l-136.394 36.278v134.957l136.392 36.28c8.502 30.794 20.81 60.374 36.778 88.384l-69.752 121.146 95.292 95.294 121.148-69.752c28.004 15.962 57.588 28.274 88.382 36.778l36.28 136.39h134.962l36.278-136.392c30.794-8.504 60.379-20.814 88.381-36.778l121.149 69.752 95.293-95.294-69.753-121.148c15.965-28.010 28.276-57.588 36.78-88.384l136.392-36.278zM815.165 384.889l5.008 24.194 123.825 32.94v11.953l-123.83 32.94-5.008 24.197c-7.82 37.81-22.719 73.63-44.279 106.462l-13.507 20.578 63.288 109.922-8.588 8.586-109.922-63.29-20.582 13.512c-32.824 21.552-68.645 36.45-106.459 44.278l-24.199 5.008-32.936 123.83h-11.953l-32.94-123.83-24.197-5.008c-37.814-7.828-73.632-22.726-106.458-44.278l-20.58-13.512-109.924 63.29-8.586-8.586 63.288-109.922-13.51-20.578c-21.556-32.834-36.456-68.652-44.28-106.462l-5.008-24.197-123.828-32.94v-11.953l123.83-32.936 5.008-24.199c7.826-37.814 22.724-73.635 44.28-106.463l13.51-20.578-63.288-109.922 8.586-8.583 109.922 63.288 20.578-13.507c32.83-21.555 68.65-36.454 106.464-44.283l24.198-5.008 32.936-123.83h11.953l32.94 123.825 24.194 5.013c37.814 7.824 73.635 22.723 106.463 44.279l20.578 13.512 109.922-63.293 8.588 8.588-63.288 109.922 13.512 20.578c21.551 32.829 36.454 68.65 44.279 106.463zM280 448c0 127.924 104.074 232 232 232s232.001-104.076 232.001-232c0-127.926-104.076-232.001-232.001-232.001s-232 104.076-232 232.001zM360 448c0-83.814 68.188-151.999 152-151.999 83.81 0 151.999 68.184 151.999 151.999s-68.189 152-151.999 152c-83.812 0-152-68.186-152-152z" />
<glyph unicode="&#xe92a;" glyph-name="tick" d="M325.818 212.226l-244.363 255.082-81.455-85.027 325.818-340.107 698.182 728.8-81.454 85.027-616.728-643.774z" />
<glyph unicode="&#xe92b;" glyph-name="send" d="M1021.512 466.453c0 12.116-7.226 23.068-18.354 27.838l-963.426 412.902c-11.023 4.725-23.795 2.498-32.574-5.675-8.776-8.174-11.902-20.756-7.972-32.086l139.753-402.972-139.753-402.98c-3.812-10.989-0.987-23.156 7.193-31.333 0.254-0.253 0.514-0.507 0.779-0.749 8.775-8.172 21.548-10.4 32.57-5.675l963.423 412.892c11.139 4.776 18.36 15.723 18.36 27.84zM78.876 824.513l764.796-327.77-651.121 0.002-113.673 327.77zM78.876 108.398l113.676 327.776 651.124-0.005-764.799-327.77z" />
<glyph unicode="&#xe92c;" glyph-name="arrow" d="M1010.055 501.694l-304.728 304.725c-18.59 18.592-48.742 18.592-67.337 0-18.595-18.596-18.595-48.741 0-67.336l223.446-223.444h-813.822c-26.294 0-47.613-21.317-47.613-47.616 0-26.289 21.319-47.611 47.613-47.611h813.822l-223.437-223.441c-18.595-18.6-18.595-48.742 0-67.337 9.295-9.29 21.485-13.945 33.671-13.945 12.181 0 24.367 4.655 33.666 13.945l304.719 304.724c18.595 18.595 18.595 48.742 0 67.337z" />
<glyph unicode="&#xe92d;" glyph-name="timer" d="M47.999 397.198c0-254.454 206.744-461.199 461.198-461.199s461.199 206.744 461.199 461.199c0 126.342-51.245 242.083-134.294 325.135l36.224 36.224 16.787-16.786c7.067-7.069 15.902-10.603 25.621-10.603 9.72 0 18.555 3.534 25.622 10.603 14.136 14.136 14.136 37.107 0 51.243l-83.934 83.935c-14.136 14.136-37.107 14.136-51.243 0-14.138-14.136-14.138-37.108 0-51.244l16.786-16.787-39.758-39.758c-67.147 49.477-147.547 80.4-235.899 87.468v30.923h80.4c20.322 0 36.224 15.903 36.224 36.224s-15.902 36.224-36.224 36.224h-238.55c-20.322 0-36.224-15.903-36.224-36.224s15.902-36.224 36.224-36.224h85.701v-30.923c-238.55-18.554-425.857-217.347-425.857-459.431zM509.197 785.948c214.696 0 389.635-174.938 389.635-389.635 0-214.694-174.938-389.633-389.635-389.633-214.694 0-389.633 174.938-389.633 389.633 0 215.579 174.937 389.635 389.633 389.635zM509.198 367.158h154.616c20.322 0 36.224 15.902 36.224 36.224 0 20.32-15.902 36.224-36.224 36.224h-118.392v186.422c0 20.322-15.902 36.224-36.224 36.224s-36.224-15.902-36.224-36.224v-223.53c0-19.438 15.902-35.341 36.224-35.341z" />
<glyph unicode="&#xe92e;" glyph-name="user4" d="M693.677 522.854c-50.048-49.902-111.107-74.854-183.178-74.854-70.069 0-130.128 24.952-180.176 74.854-50.050 49.902-75.074 109.786-75.074 179.648 0 71.861 25.024 132.741 75.074 182.644 50.048 49.903 110.107 74.854 180.176 74.854 72.070 0 133.13-24.951 183.178-74.854 50.050-49.903 75.074-110.783 75.074-182.644 0-69.862-25.024-129.746-75.074-179.648zM303.296 292.304c76.075 17.965 145.142 26.947 207.203 26.947 64.062 0 134.13-8.982 210.205-26.947 76.074-17.965 145.141-47.906 207.202-89.824 64.062-39.923 96.094-85.834 96.094-137.731v-128.749h-1024v128.749c0 51.898 31.030 97.808 93.091 137.731 64.063 41.918 134.132 71.859 210.205 89.824z" />
<glyph unicode="&#xe92f;" glyph-name="star" d="M1024 561.227l-354.4 50.478-157.6 313.002-157.6-313.002-354.4-50.478 256.512-245.080-60.344-344.851 315.832 162.752 315.834-162.752-60.346 344.851 256.512 245.080zM512 224.186l-209.088-107.75 39.906 228.070-168.158 160.664 232.48 33.11 104.86 208.258 104.86-208.258 232.477-33.11-168.16-160.664 39.91-228.070-209.088 107.75z" />
<glyph unicode="&#xe930;" glyph-name="view" d="M510.288 741.535c140.886 0 273.332-54.867 372.949-154.482l140.782-140.748-137.361-137.358c-99.611-99.635-232.056-154.479-372.945-154.479-140.887 0-273.332 54.862-372.947 154.479l-140.766 140.765 137.358 137.341c99.615 99.633 232.043 154.482 372.93 154.482zM513.712 189.061c131.63 0 255.396 51.266 348.471 144.342l112.899 112.902-116.308 116.307c-93.076 93.094-216.835 144.346-348.47 144.346-131.633 0-255.395-51.269-348.471-144.346l-112.899-112.9 116.307-116.31c93.077-93.094 216.839-144.342 348.471-144.342zM286.647 448.519c0 123.987 100.878 224.865 224.865 224.865 124.006 0 224.864-100.878 224.864-224.865 0-123.99-100.876-224.866-224.864-224.866-123.987 0-224.865 100.876-224.865 224.866zM425.026 448.519c0 47.689 38.798 86.486 86.486 86.486 9.565 0 17.297 7.749 17.297 17.297s-7.749 17.298-17.297 17.298c-66.768 0-121.081-54.314-121.081-121.081 0-9.548 7.749-17.297 17.297-17.297s17.298 7.749 17.298 17.297z" />
<glyph unicode="&#xe931;" glyph-name="angle-down" d="M1013.771 632.413l-478.181-478.149c-6.832-6.838-14.691-10.264-23.582-10.264-8.893 0-16.766 3.426-23.602 10.264l-478.142 478.149c-6.85 6.851-10.264 14.71-10.264 23.605 0 8.891 3.425 16.762 10.264 23.598l51.292 51.288c6.839 6.838 14.71 10.258 23.601 10.258s16.762-3.419 23.601-10.258l403.25-403.242 403.262 403.267c6.835 6.838 14.71 10.235 23.587 10.235 8.906 0 16.776-3.418 23.611-10.235l51.299-51.31c6.835-6.835 10.232-14.71 10.232-23.597 0.003-8.899-3.392-16.77-10.229-23.61z" />
<glyph unicode="&#xe932;" glyph-name="angle-right" d="M327.587 949.771l478.149-478.181c6.838-6.832 10.264-14.691 10.264-23.582 0-8.893-3.426-16.766-10.264-23.602l-478.149-478.142c-6.851-6.85-14.71-10.264-23.605-10.264-8.891 0-16.762 3.425-23.598 10.264l-51.288 51.292c-6.838 6.839-10.258 14.71-10.258 23.601s3.419 16.762 10.258 23.601l403.242 403.25-403.267 403.262c-6.838 6.835-10.235 14.71-10.235 23.587 0 8.906 3.418 16.776 10.235 23.611l51.31 51.299c6.835 6.835 14.71 10.232 23.597 10.232 8.899 0.003 16.77-3.392 23.61-10.229z" />
<glyph unicode="&#xe933;" glyph-name="angle-left" d="M696.413-53.771l-478.149 478.181c-6.838 6.832-10.264 14.691-10.264 23.582 0 8.893 3.426 16.766 10.264 23.602l478.149 478.142c6.851 6.85 14.71 10.264 23.605 10.264 8.891 0 16.762-3.425 23.598-10.264l51.288-51.292c6.838-6.839 10.258-14.71 10.258-23.601s-3.419-16.762-10.258-23.601l-403.242-403.25 403.267-403.262c6.838-6.835 10.235-14.71 10.235-23.587 0-8.906-3.418-16.776-10.235-23.611l-51.31-51.299c-6.835-6.835-14.71-10.232-23.597-10.232-8.899-0.003-16.77 3.392-23.61 10.229z" />
<glyph unicode="&#xe934;" glyph-name="warning" d="M638.698 811.976l339.712-593.045c28.786-46.062 28.786-103.639 0-149.701-23.038-46.059-69.097-74.845-126.676-74.845h-679.413c-51.822 0-103.642 28.786-126.672 74.845-28.79 46.062-28.79 103.639 0 149.701l339.707 593.045c28.79 46.060 74.852 74.848 126.672 74.848 51.822 0 103.642-28.786 126.672-74.848zM857.493 46.2c34.544 0 63.334 17.271 74.848 46.059 17.271 28.791 17.271 63.338 0 92.128l-339.705 593.046c-17.276 28.791-46.062 46.062-80.61 46.062-34.544 0-63.335-17.271-74.848-46.062l-339.707-593.049c-17.271-28.791-17.271-63.335 0-92.124 17.273-28.786 46.060-46.059 74.848-46.059h685.173zM511.998 587.425c-17.271 0-28.791-11.515-28.791-28.791v-207.278c0-17.271 11.515-28.79 28.791-28.79 17.271 0 28.79 11.515 28.79 28.79v207.278c0 17.276-11.517 28.791-28.79 28.791zM529.269 224.684c-11.515 11.515-28.79 11.515-40.304 0-5.757-5.757-5.757-17.271-5.757-23.029 0-11.515 0-17.271 5.757-23.029s17.271-5.757 23.029-5.757c5.757 0 17.271 0 11.515 5.757 5.757 5.757 11.515 17.271 11.515 23.029 0.007 11.515 0.007 17.271-5.755 23.029zM978.409 218.931l-20.867-11.953 0.49-0.783 20.377 12.737zM638.698 811.976l-21.526-10.762 0.676-1.182 20.85 11.944zM978.409 69.229l-20.377 12.736-0.606-0.966-0.509-1.020 21.492-10.748zM45.648 69.229l21.492 10.745-0.51 1.022-0.606 0.968-20.377-12.736zM45.648 218.931l20.391-12.746 0.458 0.802-20.85 11.944zM385.354 811.976l-20.39 12.746-0.46-0.803 20.85-11.944zM932.34 92.258l-20.607 12.363-0.99-1.651-0.711-1.789 22.308-8.923zM932.34 184.386l-20.857-11.945 0.25-0.418 20.607 12.363zM592.635 777.432l20.854 11.946-0.25 0.417-20.604-12.363zM437.178 777.432l20.85-11.944 0.836 1.459 0.624 1.561-22.311 8.923zM97.47 184.383l20.61-12.364 0.241 0.421-20.851 11.944zM488.965 224.684v0zM529.269 224.684v0zM488.965 178.625v0zM523.509 178.625l-16.991 16.991-16.99-16.991 16.99-16.991 16.991 16.991zM535.024 201.655v0zM999.256 230.873l-339.708 593.045-41.701-23.887 339.705-593.046 41.704 23.888zM998.776 56.494c33.669 53.853 33.669 121.318 0 175.172l-40.743-25.471c23.914-38.27 23.914-85.96 0-124.23l40.743-25.47zM851.733-29.645c66.181 0 120.842 33.486 148.167 88.128l-42.983 21.493c-18.753-37.477-56.208-61.564-105.184-61.564v-48.058zM172.319-29.645h679.413v48.058h-679.413v-48.058zM24.156 58.483c27.553-55.112 88.3-88.128 148.163-88.128v48.058c-43.78 0-86.673 24.548-105.179 61.562l-42.985-21.492zM25.273 231.665c-33.66-53.854-33.66-121.318 0-175.172l40.752 25.47c-23.92 38.27-23.92 85.96 0 124.23l-40.752 25.471zM364.504 823.919l-339.706-593.045 41.701-23.888 339.707 593.046-41.701 23.887zM512.026 910.853c-61.323 0-114.553-34.157-147.046-86.141l40.751-25.472c25.086 40.134 63.98 63.557 106.296 63.557v48.058zM660.189 822.722c-27.553 55.11-88.299 88.132-148.163 88.132v-48.058c43.781 0 86.674-24.551 105.179-61.565l42.985 21.491zM910.032 101.182c-7.219-18.051-25.956-30.957-52.54-30.957v-48.053c42.505 0 81.345 21.636 97.156 61.164l-44.617 17.847zM911.734 172.023c12.716-21.18 12.716-46.22 0-67.401l41.214-24.727c21.838 36.4 21.838 80.454 0 116.854l-41.214-24.727zM571.786 765.489l339.707-593.046 41.695 23.887-339.702 593.046-41.701-23.887zM512.026 799.465c25.756 0 46.889-12.537 60.005-34.396l41.209 24.727c-21.434 35.721-57.875 57.728-101.214 57.728v-48.058zM459.487 768.509c7.219 18.051 25.954 30.957 52.539 30.957v48.058c-42.504 0-81.35-21.638-97.159-61.168l44.62-17.847zM118.321 172.44l339.706 593.049-41.701 23.887-339.707-593.049 41.702-23.887zM118.076 104.621c-12.706 21.181-12.706 46.219 0 67.401l-41.21 24.722c-21.838-36.399-21.838-80.448 0-116.848l41.21 24.723zM172.319 70.224c-19.158 0-40.663 11.76-54.244 34.395l-41.21-24.723c20.964-34.946 57.030-57.725 95.453-57.725v48.053zM857.493 70.224h-685.173v-48.053h685.173v48.053zM507.237 558.636c0 1.644 0.271 2.65 0.469 3.161 0.187 0.488 0.357 0.667 0.411 0.722s0.233 0.224 0.722 0.411c0.511 0.197 1.516 0.469 3.161 0.469v48.058c-14.096 0-27.71-4.804-37.862-14.955s-14.957-23.766-14.957-37.865h48.058zM507.237 351.358v207.278h-48.058v-207.278h48.058zM511.998 346.597c-1.644 0-2.65 0.271-3.161 0.467-0.488 0.188-0.668 0.358-0.722 0.412s-0.224 0.233-0.412 0.722c-0.196 0.51-0.467 1.516-0.467 3.159h-48.058c0-14.096 4.804-27.71 14.953-37.862s23.766-14.957 37.866-14.957v48.058zM516.759 351.358c0-1.644-0.271-2.649-0.467-3.159-0.188-0.489-0.357-0.668-0.412-0.722s-0.233-0.224-0.722-0.412c-0.51-0.196-1.516-0.467-3.159-0.467v-48.058c14.096 0 27.71 4.803 37.862 14.953s14.957 23.766 14.957 37.865h-48.058zM516.759 558.636v-207.278h48.058v207.278h-48.058zM511.998 563.397c1.643 0 2.649-0.271 3.159-0.469 0.489-0.187 0.668-0.357 0.722-0.411s0.224-0.233 0.412-0.722c0.196-0.51 0.467-1.516 0.467-3.161h48.058c0 14.1-4.805 27.714-14.957 37.865s-23.766 14.955-37.862 14.955v-48.058zM505.956 207.693c1.393 1.393 2.535 1.597 3.162 1.597s1.766-0.204 3.161-1.597l33.982 33.982c-20.898 20.898-53.388 20.898-74.286 0l33.982-33.982zM507.237 201.655c0 1.462 0.003 2.758 0.065 4.126 0.062 1.362 0.173 2.512 0.328 3.438 0.161 0.968 0.305 1.29 0.247 1.15-0.056-0.139-0.543-1.298-1.92-2.675l-33.982 33.982c-8.205-8.205-10.751-18.57-11.748-24.556-1.090-6.537-1.046-12.724-1.046-15.465h48.058zM505.956 195.616c-0.010 0.009 0.109-0.109 0.296-0.357 0.191-0.253 0.41-0.587 0.621-0.984 0.454-0.858 0.601-1.507 0.616-1.583 0 0-0.032 0.161-0.071 0.55-0.039 0.392-0.080 0.945-0.11 1.726-0.068 1.672-0.071 3.671-0.071 6.686h-48.058c0-9.566-1.102-26.123 12.795-40.020l33.982 33.982zM511.994 196.897c-1.462 0-2.758 0.003-4.126 0.065-1.362 0.062-2.512 0.173-3.438 0.327-0.968 0.161-1.29 0.305-1.15 0.248s1.298-0.543 2.676-1.92l-33.982-33.982c8.205-8.205 18.57-10.751 24.556-11.748 6.537-1.090 12.724-1.046 15.465-1.046v48.058zM506.518 161.634c-0.43 0.431-2.4 2.43-3.862 6.010-1.711 4.191-2.669 10.653 0.335 17.411 2.669 6.006 7.051 8.974 9.052 10.11 2.109 1.197 3.774 1.628 4.199 1.733 0.862 0.215 0.924 0.125-0.41 0.057-1.111-0.055-2.33-0.060-3.837-0.060v-48.058c1.815 0 9.518-0.16 15.903 1.437 1.864 0.466 4.788 1.346 7.887 3.105 2.992 1.7 8.093 5.341 11.123 12.157 7.117 16.016-4.332 28.003-6.407 30.078l-33.982-33.982zM510.994 201.655c0 1.193 0.139 1.951 0.173 2.132 0.044 0.225 0.055 0.211-0.032-0.063-0.182-0.574-0.569-1.569-1.203-2.837-0.619-1.241-1.338-2.462-2.049-3.506-0.747-1.096-1.251-1.649-1.366-1.763l33.982-33.982c5.257 5.256 9.513 11.951 12.418 17.76 2.525 5.049 6.135 13.549 6.135 22.26h-48.058zM512.283 207.689c0.010-0.010-0.109 0.108-0.296 0.356-0.191 0.253-0.41 0.587-0.622 0.986-0.455 0.859-0.603 1.51-0.619 1.589 0 0.002 0.032-0.16 0.071-0.546 0.039-0.391 0.079-0.943 0.11-1.722 0.065-1.669 0.069-3.667 0.068-6.682l48.058-0.027c0.005 9.575 1.112 26.138-12.796 40.038l-33.973-33.991z" />
<glyph unicode="&#xe935;" glyph-name="information" d="M512 960c-282.317 0-512-229.687-512-512.003 0-282.313 229.683-511.997 512-511.997s512 229.683 512 511.997c0 282.317-229.683 512.003-512 512.003zM512 29.088c-230.99 0-418.909 187.924-418.909 418.908 0 230.986 187.919 418.912 418.909 418.912 230.987 0 418.912-187.926 418.912-418.912 0-230.984-187.924-418.908-418.912-418.908zM511.994 742.788c-34.214 0-62.048-27.853-62.048-62.089 0-34.205 27.834-62.033 62.048-62.033s62.048 27.828 62.048 62.033c0 34.236-27.834 62.089-62.048 62.089zM512.001 525.575c-25.706 0-46.546-20.84-46.546-46.546v-279.274c0-25.702 20.84-46.544 46.546-46.544s46.546 20.842 46.546 46.544v279.274c0 25.706-20.84 46.546-46.546 46.546z" />
<glyph unicode="&#xe936;" glyph-name="email" d="M934.002 838h-844.002c-49.564 0-90-40.392-90-90v-599.998c0-49.442 40.256-90.004 90-90.004h844.002c49.436 0 89.998 40.26 89.998 90.004v599.998c0 49.44-40.255 90-89.998 90zM921.572 778l-407.664-407.665-411.19 407.665h818.854zM60 160.427v575.435l288.958-286.48-288.958-288.955zM102.426 117.999l289.14 289.141 101.314-100.446c11.728-11.628 30.654-11.588 42.334 0.097l98.784 98.784 287.573-287.575h-819.145zM963.999 160.427l-287.573 287.573 287.573 287.576v-575.15z" />
<glyph unicode="&#xe937;" glyph-name="calendar3" d="M818.453 986.161v-52.321h179.387v-971.679h-971.679v971.679h179.387v52.321h74.744v-52.321h463.417v52.321h74.744zM205.547 859.095h-104.643v-104.643h822.191v104.643h-104.643v-52.321h-74.744v52.321h-463.417v-52.321h-74.744v52.321zM100.905 679.708v-642.804h822.191v642.804h-822.191zM825.927 582.54h-89.694v-89.694h89.694v89.694zM736.234 403.153h89.694v-89.694h-89.694v89.694zM646.54 582.54h-89.694v-89.694h89.694v89.694zM556.847 403.153h89.694v-89.694h-89.694v89.694zM467.153 582.54h-89.694v-89.694h89.694v89.694zM377.46 403.153h89.694v-89.694h-89.694v89.694zM287.766 403.153h-89.694v-89.694h89.694v89.694zM556.847 223.766h89.694v-89.694h-89.694v89.694zM467.153 223.766h-89.694v-89.694h89.694v89.694zM198.073 223.766h89.694v-89.694h-89.694v89.694z" />
<glyph unicode="&#xe938;" glyph-name="group2" d="M192.905 633.995c0 102.723 83.272 185.995 185.995 185.995s185.995-83.272 185.995-185.995c0-102.724-83.27-185.995-185.995-185.995-102.723 0-185.995 83.27-185.995 185.995zM525.128 418.51c68.902 46.851 114.16 125.88 114.16 215.485 0 143.809-116.582 260.389-260.389 260.389s-260.389-116.582-260.389-260.389c0-89.603 45.256-168.634 114.159-215.485-133.143-56.442-225.754-187.967-225.754-342.495h74.395c0 165.448 132.141 297.589 297.589 297.589s297.589-132.141 297.589-297.589h74.395c0 154.528-92.613 286.052-225.755 342.495zM837.681 646.392c0 89.023-72.17 161.193-161.193 161.193v74.395c130.116 0 235.592-105.479 235.592-235.592 0-79.879-39.76-150.475-100.561-193.081 119.844-59.966 199.758-197.535 199.758-352.498h-74.395c0 177.921-120.783 309.987-260.389 309.987v74.395c89.023 0 161.193 72.169 161.193 161.193z" />
<glyph unicode="&#xe939;" glyph-name="user3" d="M279.27 629.581c0 128.534 104.195 232.73 232.73 232.73 128.537 0 232.73-104.195 232.73-232.73 0-128.537-104.193-232.73-232.73-232.73-128.534 0-232.73 104.193-232.73 232.73zM694.973 359.953c86.216 58.623 142.845 157.511 142.845 269.629 0 179.942-145.875 325.817-325.817 325.817s-325.817-145.875-325.817-325.817c0-112.118 56.627-211.007 142.843-269.629-166.599-70.625-282.478-235.197-282.478-428.554h93.089c0 207.019 165.345 372.365 372.365 372.365s372.365-165.345 372.365-372.365h93.089c0 193.357-115.883 357.926-282.479 428.554z" />
<glyph unicode="&#xe93a;" glyph-name="home3" d="M534.199 922.324l489.799-489.798-44.403-44.403-59.429 59.429v-445.396h-326.532v376.768h-163.267v-376.768h-326.533v445.396l-59.432-59.429-44.403 44.403 512.001 511.999 22.199-22.201zM857.371 510.348l-345.371 345.373-345.372-345.373v-445.396h200.944v376.768h288.857v-376.768h200.944v445.396z" />
<glyph unicode="&#xe93b;" glyph-name="idea" d="M205.193 821.422l-76.8 76.8 43.099 43.099 76.8-76.8-43.099-43.099zM475.512 913.467c194.224 24.154 359.536-129.623 359.536-319.181 0-97.359-44.602-181.566-104.014-240.977l-0.395-0.4-0.415-0.385c-46.573-43.242-74.376-97.797-74.376-153.21v-37.791h-3.657v-146.286h-73.738c-11.615-25.122-37.083-42.666-66.453-42.666s-54.838 17.544-66.453 42.666h-73.738v207.238h2.071c-6.133 44.959-29.877 89.034-68.178 121.886-80.224 68.213-128.998 173.28-112.807 290.661l0.003 0.029c20.133 144.958 136.758 262.112 282.613 278.417zM774.095 594.287c0 154.145-134.461 278.27-291.231 258.673l-0.415-0.051v0.003c-117.357-13.040-212.742-107.95-229.176-226.231-13.058-94.706 25.918-179.786 91.95-235.917l0.096-0.078c51.282-43.959 83.557-104.741 89.935-168.209h160.811c6.768 66.969 42.354 127.819 92.248 174.31 50.103 50.273 85.782 119.515 85.782 197.502zM432.762 161.523v-85.334h158.477v85.334h-158.477zM914.286 527.238h109.714v60.953h-109.714v-60.953zM109.714 527.238h-109.714v60.953h109.714v-60.953zM775.71 250.91l76.8-76.8 43.096 43.096-76.8 76.8-43.096-43.096zM205.193 294.005l-76.8-76.8 43.099-43.096 76.8 76.8-43.099 43.096zM775.71 864.521l76.8 76.8 43.096-43.099-76.8-76.8-43.096 43.099z" />
<glyph unicode="&#xe93c;" glyph-name="analytics3" d="M156.444 675.556v-739.556h-85.333v739.556h85.333zM554.667 960v-1024h-85.333v1024h85.333zM952.889-64v512h-85.333v-512h85.333z" />
<glyph unicode="&#xe93d;" glyph-name="news2" d="M0 881.231v-708.923c0-88.705 68.833-157.538 157.538-157.538h708.923c88.705 0 157.538 68.833 157.538 157.538v433.231h-236.308v275.692h-787.692zM708.923 802.462v-630.154c0-28.94 7.326-55.764 20.276-78.769h-571.66c-45.202 0-78.769 33.567-78.769 78.769v630.154h630.154zM945.231 172.308c0-45.202-33.567-78.769-78.769-78.769s-78.769 33.567-78.769 78.769v354.462h157.538v-354.462zM196.923 723.692h-39.385v-196.923h472.615v196.923h-433.231zM236.308 605.538v39.385h315.077v-39.385h-315.077zM354.462 342.975v78.769h-196.923v-78.769h196.923zM433.231 342.975v78.769h196.923v-78.769h-196.923zM354.462 172.308v78.769h-196.923v-78.769h196.923zM433.231 172.308v78.769h196.923v-78.769h-196.923z" />
<glyph unicode="&#xe93e;" glyph-name="padlock" d="M40.421 838.737h-40.421v-646.737h808.422v646.737h-768.001zM80.842 272.842v485.053h646.737v-485.053h-646.737zM943.158 582.737v-525.474h-687.158v-80.842h768.001v606.316h-80.842z" />
<glyph unicode="&#xe93f;" glyph-name="logout2" d="M565.711 919.998c0 22.094 17.912 40 40.008 40h378.282c22.090 0 39.999-17.906 39.999-40v-943.997c0-22.090-17.909-39.999-39.999-39.999h-378.287c-22.090 0-40.002 17.909-40.002 39.999 0 22.096 17.906 39.999 40.002 39.999h338.283v864h-338.277c-22.096 0-40.008 17.906-40.008 40zM11.697 419.711l226.272-226.271c15.625-15.622 40.946-15.622 56.57 0 15.617 15.622 15.617 40.943 0 56.57l-157.991 157.989h695.444c22.090 0 39.999 17.906 39.999 40s-17.909 40-39.999 40h-695.444l157.991 157.983c15.617 15.625 15.617 40.953 0 56.57-15.625 15.625-40.953 15.617-56.57 0l-226.28-226.272c-5.367-5.352-9.391-12.617-10.945-20.469-2.492-12.586 1.297-26.453 10.953-36.102z" />
<glyph unicode="&#xe940;" glyph-name="i_pen" d="M854.667 937.871l147.206-147.202c12.176-12.177 12.171-31.932 0-44.104l-544.707-544.704c-4.188-4.187-9.569-7.076-15.047-8.339l-191.309-44.107c-22.46-5.18-42.558 14.995-37.397 37.396l44.106 191.31c1.294 5.604 4.261 10.973 8.336 15.046l544.706 544.706c12.181 12.181 31.927 12.181 44.102 0zM311.052 332.65l-25.652-111.248 111.252 25.649c-15.108 37.051-48.552 70.489-85.601 85.599zM346.173 385.27c43.945-21.273 81.829-59.152 103.097-103.099l339.244 339.243-103.099 103.097-339.242-339.241zM729.522 768.618l103.094-103.099 103.099 103.098-103.099 103.097-103.094-103.096zM967.343-44.993v393.191h-62.376v-330.367l-810.885 5.788v792.395h243.266v62.376h-305.642v-916.703l935.636-6.682z" />
<glyph unicode="&#xe941;" glyph-name="i_controls" d="M40 628h608.249c18.424-85.624 94.704-150.001 185.75-150.001 104.767 0 190.001 85.235 190.001 190.001s-85.234 190-190.001 190c-91.046 0-167.326-64.375-185.75-150h-608.249c-22.094 0-40-17.906-40-40s17.906-40 40-40zM833.999 778c60.658 0 110.002-49.344 110.002-110s-49.345-110-110.002-110c-60.654 0-109.998 49.344-109.998 110s49.345 110 109.998 110zM983.998 268.001h-608.249c-18.422 85.623-94.703 150-185.75 150-104.765 0-190-85.234-190-190.001 0-104.763 85.234-190.001 190-190.001 91.047 0 167.328 64.377 185.75 150h608.249c22.094 0 40.002 17.908 40.002 40.002s-17.908 40.002-40.002 40.002zM190 118.002c-60.656 0-110 49.34-110 109.998s49.344 110.002 110 110.002c60.656 0 110-49.345 110-110.002s-49.344-109.998-110-109.998z" />
<glyph unicode="&#xe942;" glyph-name="i_person_message" d="M924 960h-824c-55.141 0-100-44.859-100-100v-666.665c0-55.14 44.859-100 100-100h238.101l145.616-145.625c15.61-15.61 40.948-15.61 56.566 0l145.617 145.625h238.1c55.14 0 100 44.859 100 100v666.665c0 55.141-44.859 100-100 100zM669.336 173.335c-10.609 0-20.787-4.219-28.287-11.719l-129.049-129.044-129.047 129.044c-7.5 7.5-17.68 11.71-28.281 11.71h-114.414c19.422 132.563 133.875 234.672 271.742 234.672s252.322-102.109 271.749-234.672l-114.414 0.008zM394.664 605.336c0 64.695 52.64 117.328 117.336 117.328s117.334-52.633 117.334-117.328c0-64.705-52.638-117.334-117.334-117.334s-117.336 52.63-117.336 117.334zM944.001 193.335c0-11.031-8.97-20.001-20.001-20.001h-59.601c-14.713 130.47-100.487 239.718-217.604 288.027 38.461 36.028 62.534 87.241 62.534 143.975 0 108.805-88.523 197.328-197.329 197.328-108.813 0-197.336-88.524-197.336-197.328 0-56.734 24.070-107.946 62.531-143.975-117.11-48.308-202.883-157.557-217.594-288.027h-59.601c-11.031 0-20 8.97-20 20.001v666.665c0 11.031 8.969 20 20 20h824c11.031 0 20.001-8.969 20.001-20v-666.665z" />
<glyph unicode="&#xe943;" glyph-name="i_networking" d="M910.197 217.358c45.117 36.491 74.023 92.275 74.023 154.681 0 109.67-89.219 198.89-198.885 198.89-22.655 0-44.429-3.813-64.725-10.82-22.962 20.476-48.734 37.383-76.366 50.258 41.079 36.461 67.015 89.625 67.015 148.742 0 109.672-89.219 198.891-198.881 198.891-109.674 0-198.892-89.219-198.892-198.891 0-58.992 25.828-112.062 66.758-148.516-27.797-12.891-53.719-29.867-76.805-50.437-20.32 6.977-42.109 10.773-64.773 10.773-110.234 0-199.922-89.678-199.922-199.922 0-62.271 28.625-117.985 73.406-154.681-67.305-42.246-112.148-117.117-112.148-202.281v-34.578c0-21.967 17.805-39.772 39.781-39.772h944.438c21.975 0 39.78 17.805 39.78 39.772v34.578c0 85.852-45.576 161.26-113.803 203.313zM904.663 372.040c0-65.798-53.531-119.329-119.329-119.329-65.802 0-119.333 53.531-119.333 119.329 0 65.802 53.531 119.337 119.333 119.337 65.798 0 119.329-53.535 119.329-119.337zM512.377 878.445c65.794 0 119.333-53.531 119.333-119.336 0-65.797-53.539-119.328-119.333-119.328-65.798 0-119.338 53.531-119.338 119.328 0 65.805 53.54 119.336 119.338 119.336zM648.532 516.272c-38.22-36.266-62.087-87.515-62.087-144.232 0-62.407 28.905-118.19 74.023-154.681-66.843-41.202-111.935-114.414-113.734-198.107h-69.468c-1.79 82.997-46.158 155.693-112.086 197.075 44.781 36.696 73.408 92.41 73.408 154.681 0 57.25-24.195 108.945-62.884 145.428 80.89 58.502 191.986 58.447 272.829-0.164zM118.297 371.007c0 66.376 54 120.369 120.367 120.369 66.375 0 120.367-53.993 120.367-120.369 0-60.178-44.398-110.186-102.156-118.985-6.015 0.455-12.086 0.688-18.211 0.688s-12.195-0.233-18.203-0.688c-57.766 8.798-102.164 58.806-102.164 118.985zM79.641 19.251c2.547 78.975 62.953 143.553 140.109 152.74 6.227-0.586 12.531-0.905 18.914-0.905s12.687 0.319 18.922 0.905c77.156-9.196 137.555-73.765 140.109-152.74h-318.055zM626.303 19.251c2.761 85.336 73.040 153.903 159.031 153.903 85.996 0 156.275-68.567 159.023-153.903h-318.054z" />
<glyph unicode="&#xe944;" glyph-name="i_hourglass" d="M902.222 15.998h-82.375v312c0 8.38-2.634 16.549-7.527 23.353l-69.501 96.649 69.501 96.646c4.892 6.801 7.527 14.972 7.527 23.354v311.999h82.375c22.090 0 39.999 17.908 39.999 40s-17.909 40-39.999 40c-33.314 0-726.797 0-759.999 0-22.092 0-40-17.908-40-40s17.908-40 40-40h82.374v-311.999c0-8.38 2.632-16.55 7.526-23.354l69.504-96.646-69.505-96.649c-4.892-6.798-7.526-14.968-7.526-23.353v-312h-82.372c-22.092 0-40-17.903-40-39.999 0-22.090 17.908-39.999 40-39.999 26.458 0 725.167 0 759.999 0 22.090 0 39.999 17.909 39.999 39.999 0 22.096-17.909 39.999-39.999 39.999zM739.845 15.998h-435.249v91.153l217.626 152.052 217.622-152.052v-91.153zM739.845 580.89l-78.774-109.539c-10.036-13.952-10.036-32.755 0-46.71l78.774-109.533v-110.37l-194.713 136.050c-13.761 9.614-32.057 9.614-45.82 0l-194.715-136.050v110.37l78.775 109.533c10.034 13.954 10.034 32.758 0 46.71l-78.775 109.539v299.109h435.249v-299.109z" />
<glyph unicode="&#xe945;" glyph-name="I_cup" d="M983.998 884h-174.995v36c0 22.094-17.908 40-40.002 40-14.499 0-499.508 0-514 0-22.094 0-40-17.906-40-40v-36h-175c-22.094 0-40-17.906-40-40v-106c0-128.687 96.195-235.312 220.461-251.781 18.078-93.545 80.109-173.182 167.601-213.208-14.726-60.669-69.14-105.008-134.062-105.008-2.798 0-16.664 0-22 0-18.172 0-34.054-12.252-38.68-29.822l-40-151.998c-6.672-25.353 12.476-50.182 38.68-50.182h640c26.202 0 45.351 24.829 38.678 50.182l-39.996 151.998c-4.626 17.571-20.511 29.822-38.684 29.822-5.331 0-19.204 0-21.998 0-64.921 0-119.338 44.339-134.060 105.008 87.492 40.026 149.522 119.664 167.599 213.208 124.266 16.461 220.461 123.094 220.461 251.781v106c0 22.094-17.908 40-40.002 40zM215 568.406c-77.227 17.751-135 87.055-135 169.594v66h135v-235.594zM761.163 87.998l18.944-71.999c-15.125 0-521.092 0-536.216 0l18.945 71.999h498.327zM728.998 543c0-94.055-60-176.932-149.305-206.225-16.986-5.572-28.214-21.745-27.498-39.605 1.909-47.694 19.131-92.702 49.032-129.168-21.588 0-156.719 0-178.453 0 29.906 36.466 47.133 81.474 49.039 129.168 0.712 17.86-10.515 34.033-27.5 39.605-89.313 29.293-149.313 112.169-149.313 206.225 0 12.929 0 320.836 0 337h433.998v-337zM944.001 738c0-82.539-57.778-151.843-134.999-169.594v235.594h134.999v-66z" />
<glyph unicode="&#xe946;" glyph-name="I_plus" d="M559.008 494.997l-0.005 417.999c0.010 25.958-21.045 47.010-47.003 46.999-25.968 0.001-46.996-21.027-46.996-46.997l0.008-417.999-418.010-0.002c-25.97 0.001-46.998-21.028-46.997-46.997-0.010-25.957 21.041-47.008 46.999-46.997h418.010l-0.002-418.011c-0.010-25.957 21.041-47.008 46.998-46.997 12.976 0.010 24.728 5.272 33.227 13.771s13.76 20.251 13.76 33.238l0.005 418.011 417.995-0.010c12.987 0 24.739 5.262 33.238 13.76s13.76 20.256 13.76 33.239c0.010 25.958-21.040 47.010-46.997 46.999l-417.99-0.003z" />
<glyph unicode="&#xe947;" glyph-name="i_import" d="M540.281 369.715c-15.68-15.686-41.133-15.436-56.568 0l-160 159.999c-15.621 15.621-15.621 40.95 0 56.57s40.95 15.621 56.57 0l91.716-91.716v375.433c0 22.093 17.908 40 39.999 40 22.093 0 40-17.908 40-40v-375.433l91.713 91.716c15.623 15.621 40.954 15.621 56.57 0 15.623-15.623 15.623-40.95 0-56.57l-160-159.999zM156 297.996h712c86.023 0 156-69.978 156-155.994 0-86.023-69.978-156.006-156-156.006h-712c-86.020 0-156 69.984-156 156.006 0 86.016 69.98 155.994 156 155.994zM156 65.996h712c41.908 0 76 34.099 76 76.006 0 41.901-34.093 75.994-76 75.994h-712c-41.906 0-76-34.093-76-75.994 0-41.908 34.094-76.006 76-76.006z" />
<glyph unicode="&#xe948;" glyph-name="i_pencil" d="M1012.286 759.489l-188.799 188.793c-15.616 15.622-40.941 15.622-56.564 0l-698.611-698.606c-5.226-5.229-9.032-12.115-10.691-19.302l-56.569-245.356c-6.62-28.736 19.157-54.611 47.962-47.967l245.362 56.57c7.026 1.619 13.926 5.325 19.297 10.695l698.612 698.609c15.61 15.611 15.616 40.947 0 56.566zM93.377 29.377l32.899 142.681c47.517-19.379 90.411-62.265 109.787-109.785l-142.686-32.896zM303.547 107.316c-27.277 56.365-75.865 104.953-132.227 132.23l435.094 435.094 132.23-132.228-435.096-435.096zM795.205 598.978l-132.223 132.23 132.223 132.226 132.23-132.227-132.23-132.227z" />
<glyph unicode="&#xe949;" glyph-name="i_pin" d="M1011.283 789.953l-157.33 157.335c-14.075 14.070-36.358 15.656-52.287 3.711l-601.58-451.187-54.133 54.141c-15.625 15.617-40.954 15.617-56.57 0-15.625-15.624-15.625-40.952 0-56.57l207.711-207.72-286.376-286.376c-15.625-15.62-15.625-40.95 0-56.565 15.617-15.62 40.945-15.627 56.561 0l286.383 286.369 207.719-207.707c15.614-15.62 40.944-15.627 56.572 0 15.614 15.614 15.614 40.944 0 56.572l-54.141 54.128 451.189 601.581c11.94 15.93 10.356 38.211-3.72 52.289zM506.672 193.225l-249.437 249.446 564.682 423.516 108.269-108.274-423.513-564.688z" />
<glyph unicode="&#xe94a;" glyph-name="i_settings" d="M931.858 478.989c1.524-20.716 1.524-41.286 0-61.977l77.344-71.764c13.696-12.704 16.767-33.196 7.411-49.364l-120.313-207.846c-9.325-16.109-28.531-23.661-46.33-18.207l-101.075 30.95c-17.222-11.719-35.276-22.144-53.984-31.161l-23.616-102.592c-4.179-18.156-20.345-31.027-38.982-31.027h-240.629c-18.634 0-34.799 12.87-38.98 31.027l-23.617 102.592c-18.702 9.017-36.76 19.444-53.986 31.161l-101.070-30.95c-17.804-5.452-37.006 2.099-46.332 18.207l-120.315 207.846c-9.357 16.166-6.282 36.659 7.411 49.364l77.35 71.764c-1.526 20.716-1.524 41.287 0 61.977l-77.35 71.766c-13.694 12.706-16.77 33.196-7.411 49.362l120.317 207.846c9.326 16.11 28.526 23.664 46.332 18.207l101.070-30.951c17.226 11.72 35.282 22.141 53.986 31.161l23.616 102.592c4.18 18.16 20.346 31.027 38.98 31.027h240.636c18.63 0 34.796-12.867 38.976-31.027l23.616-102.592c18.701-9.020 36.761-19.442 53.984-31.161l101.075 30.951c17.799 5.456 36.999-2.097 46.33-18.207l120.32-207.846c9.356-16.166 6.279-36.656-7.417-49.362l-77.344-71.766zM850.418 406.061c3.436 27.936 3.436 55.954 0 83.877-1.575 12.749 3.079 25.476 12.492 34.212l68.467 63.526-88.384 152.691-89.587-27.434c-12.256-3.757-25.575-1.406-35.807 6.32-22.502 16.981-46.989 31.114-72.781 42-11.827 4.994-20.544 15.362-23.424 27.877l-20.915 90.867h-176.958l-20.916-90.867c-2.882-12.514-11.596-22.884-23.426-27.877-25.792-10.886-50.277-25.019-72.777-42-10.236-7.726-23.552-10.076-35.81-6.32l-89.584 27.434-88.387-152.691 68.467-63.526c9.416-8.736 14.064-21.464 12.492-34.212-3.437-27.934-3.437-55.955 0-83.877 1.571-12.749-3.076-25.472-12.492-34.207l-68.467-63.526 88.387-152.691 89.584 27.43c12.26 3.764 25.576 1.407 35.81-6.316 22.5-16.985 46.987-31.116 72.777-42.004 11.83-4.992 20.546-15.36 23.426-27.879l20.917-90.867h176.956l20.915 90.867c2.88 12.519 11.596 22.886 23.424 27.879 25.792 10.886 50.279 25.017 72.781 42.004 10.234 7.725 23.545 10.080 35.807 6.316l89.587-27.43 88.384 152.691-68.467 63.526c-9.415 8.736-14.061 21.459-12.492 34.207zM351.999 448.001c0 88.224 71.776 160 160 160s160.001-71.776 160.001-160c0-88.225-71.776-160.001-160.001-160.001s-160 71.776-160 160.001zM431.999 448.001c0-44.11 35.887-80.001 80-80.001 44.116 0 80.001 35.891 80.001 80.001 0 44.112-35.891 80-80.001 80-44.112 0-80-35.887-80-80z" />
<glyph unicode="&#xe94b;" glyph-name="i_photo-camera" d="M840.41 702h143.59c22.093 0 40-17.908 40-40v-599.996c0-22.093-17.908-40-40-40h-944c-22.093 0-40 17.908-40 40v599.996c0 22.093 17.908 40 40 40h143.59l50.643 145.174c5.605 16.064 20.756 26.826 37.769 26.826h480c17.011 0 32.166-10.763 37.766-26.826l50.644-145.174zM80 622v-519.996h864v519.996h-132c-17.011 0-32.166 10.763-37.766 26.826l-50.644 145.174h-423.18l-50.643-145.174c-5.605-16.064-20.756-26.826-37.769-26.826h-132zM312 401.996c0 110.283 89.72 200.004 200 200.004 110.285 0 200-89.72 200-200.004 0-110.279-89.715-200-200-200-110.28 0-200 89.721-200 200zM392 401.996c0-66.164 53.833-120 120-120 66.17 0 120 53.836 120 120 0 66.171-53.83 120.004-120 120.004-66.168 0-120-53.833-120-120.004z" />
<glyph unicode="&#xe94c;" glyph-name="i_chat" d="M512 878.080c243.809 0 460.8-166.275 460.8-392.379 0-82.583-29.322-160.776-85.023-227.32l47.872-184.832c7.101-27.407-18.944-52.081-46.024-43.238l-244.209 79.703c-43.141-11.080-87.967-16.691-133.417-16.691-243.963 0-460.8 166.436-460.8 392.379 0 227.876 219.164 392.379 460.8 392.379v0zM512 165.325c42.665 0 84.634 5.683 124.728 16.896 6.845 1.91 14.106 1.756 20.869-0.445l191.867-62.628-36.168 139.643c-3.067 11.837 0.092 24.433 8.387 33.423 51.758 56.12 79.119 123.028 79.119 193.487 0 176.66-174.418 320.386-388.803 320.386-214.383 0-388.8-143.726-388.8-320.386 0-176.658 174.417-320.376 388.8-320.376zM467 485.708c0-24.856 20.145-44.999 45-44.999 24.858 0 45 20.144 45 44.999 0 24.848-20.142 45-45 45-24.856 0-45-20.151-45-45zM287 485.708c0-24.856 20.145-44.999 45-44.999s45 20.144 45 44.999c0 24.848-20.145 45-45 45s-45-20.151-45-45zM646.999 485.708c0-24.856 20.147-44.999 45-44.999 24.858 0 45 20.144 45 44.999 0 24.848-20.142 45-45 45-24.852 0-45-20.151-45-45z" />
<glyph unicode="&#xe94d;" glyph-name="i_information-2" d="M512 960c-282.968 0-512-228.993-512-512 0-282.966 228.993-512 512-512 282.966 0 512 228.994 512 512 0 282.968-228.994 512-512 512zM512 15.997c-238.754 0-432 193.218-432 432.003 0 238.754 193.214 432 432 432 238.751 0 432.003-193.214 432.003-432 0-238.751-193.218-432.003-432.003-432.003zM512 153.002c27.613 0 50 22.386 50 50s-22.386 50-50 50c-27.614 0-50-22.386-50-50s22.386-50 50-50zM352 543c0 88.223 71.777 160 160 160s160-71.777 160-160c0-74.418-51.069-137.132-120.001-154.938v-65.063c0-22.090-17.909-39.999-39.999-39.999-22.092 0-40 17.909-40 39.999v99.999c0 22.096 17.908 40.002 40 40.002 44.111 0 79.997 35.889 79.997 80s-35.886 80-79.997 80c-44.112 0-80-35.888-80-80 0-22.091-17.908-40-40-40s-40 17.908-40 40z" />
<glyph unicode="&#xe94e;" glyph-name="i_calendar-2" d="M876.165 792.585v-495.192c81.316-17.3 142.502-89.664 142.502-176.058 0-99.249-80.751-180-180-180-86.394 0-158.758 61.185-176.058 142.502h-566.443c-20.713 0-37.499 16.785-37.499 37.498v671.251c0 20.713 16.786 37.499 37.499 37.499h105v33.751c0 20.713 16.786 37.499 37.499 37.499s37.499-16.786 37.499-37.499v-33.751h153.751v33.751c0 20.713 16.786 37.499 37.499 37.499s37.5-16.786 37.5-37.499v-33.751h153.75v33.751c0 20.713 16.788 37.499 37.498 37.499 20.715 0 37.498-16.786 37.498-37.499v-33.751h105.002c20.715 0 37.498-16.786 37.498-37.499zM201.167 755.084h-67.501v-126.057h667.503v126.057h-67.504v-33.75c0-20.714-16.785-37.499-37.498-37.499-20.71 0-37.498 16.786-37.498 37.499v33.75h-153.75v-33.75c0-20.714-16.788-37.499-37.5-37.499s-37.499 16.786-37.499 37.499v33.75h-153.751v-33.75c0-20.714-16.786-37.499-37.499-37.499s-37.499 16.786-37.499 37.499v33.75zM801.168 554.026h-667.503v-395.195h528.943c14.731 69.216 69.345 123.84 138.559 138.559v256.635zM733.664 121.333c0-57.899 47.105-105.002 105.002-105.002s105.002 47.105 105.002 105.002c0 57.899-47.105 105.002-105.002 105.002s-105.002-47.105-105.002-105.002zM790.971 126.671l42.358 42.358c14.646 14.646 38.395 14.646 53.035 0 14.64-14.64 14.64-38.389 0-53.035l-42.358-42.358c-14.646-14.646-38.395-14.64-53.035 0-14.646 14.64-14.646 38.389 0 53.035z" />
<glyph unicode="&#xe94f;" glyph-name="i_mail" d="M983.999 813.715h-943.998c-22.094 0-40-17.906-40-40v-640.002c0-22.089 17.906-40.001 40-40.001h943.998c22.097 0 40.001 17.913 40.001 40.001v640.002c0 22.094-17.906 40-40.001 40zM943.996 733.715v-91.32l-431.996-146.446-432.001 146.446v91.32h863.997zM79.999 173.714v384.203l419.156-142.086c8.25-2.794 17.276-2.853 25.687 0l419.153 142.086v-384.203h-863.997z" />
<glyph unicode="&#xe950;" glyph-name="i_printer" d="M120.001 835.657h784.002c66.166 0 119.998-53.831 119.998-120v-360c0-66.166-53.833-119.998-119.998-119.998h-85.263l13.056-127.941c1.149-11.257-2.523-22.47-10.109-30.874-7.584-8.397-18.373-13.187-29.689-13.187h-559.996c-11.317 0-22.103 4.791-29.684 13.187-7.584 8.404-11.259 19.617-10.109 30.874l13.054 127.941h-85.263c-66.168 0-120 53.833-120 119.998v360c0 66.168 53.831 120 120 120zM308.129 455.657l-31.836-311.997h471.418l-31.839 311.997h-407.742zM904.001 315.656c22.053 0 39.994 17.949 39.994 40.001v360c0 22.056-17.941 40-39.994 40h-784.002c-22.056 0-40-17.944-40-40v-360c0-22.053 17.944-40.001 40-40.001h93.426l18.783 184.060c2.081 20.414 19.271 35.943 39.791 35.943h479.995c20.524 0 37.713-15.529 39.797-35.943l18.783-184.060h93.426zM240 645.657c0-27.614-22.386-50-50-50s-50 22.386-50 50c0 27.614 22.386 50 50 50s50-22.386 50-50z" />
<glyph unicode="&#xe951;" glyph-name="i_test" d="M620.62 888.749h210.132c20.711 0 37.498-16.789 37.498-37.501v-813.751c0-20.711-16.786-37.498-37.498-37.498h-637.501c-20.712 0-37.501 16.786-37.501 37.498v813.751c0 20.712 16.789 37.501 37.501 37.501h209.868v33.75c0 20.712 16.787 37.501 37.501 37.501h142.498c20.711 0 37.504-16.787 37.504-37.501v-33.75zM545.619 884.998h-67.5v-67.499h67.5v67.499zM230.75 75.002h562.497v738.747h-172.627v-33.75c0-20.712-16.793-37.501-37.504-37.501h-142.498c-20.712 0-37.501 16.789-37.501 37.501v33.75h-172.367v-738.747zM406.218 431.142l51.346-51.342 159.954 159.954c14.651 14.647 38.393 14.647 53.036 0s14.644-38.389 0-53.032l-186.477-186.473c-14.64-14.644-38.396-14.63-53.029 0l-77.862 77.863c-14.647 14.644-14.647 38.386 0 53.029 14.644 14.651 38.386 14.651 53.032 0z" />
<glyph unicode="&#xe952;" glyph-name="i_open_book" d="M834.971 956.197c12.39 5.832 26.897 4.918 38.461-2.418s18.568-20.082 18.568-33.774v-944.002c0-22.091-17.906-39.998-39.998-39.998h-680.004c-22.092 0-40.001 17.906-40.001 39.998v944.002c0 13.695 7.004 26.436 18.568 33.774 11.561 7.337 26.074 8.25 38.464 2.418l152.969-71.984 152.948 71.984c10.786 5.074 23.279 5.078 34.065 0l152.985-71.985 152.973 71.985zM211.999 16.001h600v840.973l-112.968-53.162c-10.786-5.075-23.272-5.078-34.058 0l-152.985 71.987-152.953-71.984c-10.788-5.075-23.276-5.078-34.066 0l-112.968 53.16v-840.973zM351.999 608.005c-22.092 0-40.001-17.907-40.001-40.001s17.909-40 40.001-40h320.005c22.091 0 39.998 17.907 39.998 40s-17.906 40.001-39.998 40.001h-320.005zM351.999 448.004h320.005c22.091 0 39.998-17.91 39.998-40.002s-17.906-39.998-39.998-39.998h-320.005c-22.092 0-40.001 17.906-40.001 39.998s17.909 40.002 40.001 40.002zM351.999 288.003h320.005c22.091 0 39.998-17.906 39.998-39.998s-17.906-40.004-39.998-40.004h-320.005c-22.092 0-40.001 17.913-40.001 40.004s17.909 39.998 40.001 39.998z" />
<glyph unicode="&#xe953;" glyph-name="i_homework" d="M984.003 16.002h-38.667v668c0 14.046-7.372 27.070-19.422 34.297l-393.338 235.999c-12.663 7.602-28.487 7.602-41.152 0l-393.338-235.999c-12.047-7.227-19.422-20.251-19.422-34.297v-668h-38.664c-22.093 0-40.001-17.906-40.001-39.998 0-22.098 17.906-40.004 40.001-40.004h944.001c22.091 0 39.998 17.906 39.998 40.004 0 22.091-17.906 39.998-39.998 39.998zM434.742 16.719v312.62h155.163v-312.62h-155.163zM669.907 16.002v353.335c0 22.098-17.913 40.004-40.004 40.004h-235.161c-22.093 0-40.001-17.906-40.001-40.004v-353.335h-196.078v645.352l353.336 211.999 353.335-211.999v-645.352h-195.427z" />
<glyph unicode="&#xe954;" glyph-name="i_lesson" d="M951.999 179.255h32.004c22.091 0 39.997-17.907 39.997-39.997 0-22.097-17.907-40.004-39.997-40.004h-944.003c-22.092 0-40 17.907-40 40.004 0 22.091 17.908 39.997 40 39.997h32v520h-32c-22.092 0-40 17.908-40 40s17.908 40 40 40h432v52c0 22.092 17.908 40 40 40s39.997-17.908 39.997-40v-52h432.005c22.091 0 39.997-17.908 39.997-40s-17.907-40-39.997-40h-32.004v-520zM152 699.255v-520h719.997v520h-719.997zM772 459.255h-220.003c-22.091 0-39.997 17.908-39.997 40s17.907 40 39.997 40h220.003c22.091 0 39.997-17.908 39.997-40s-17.907-40-39.997-40zM551.997 339.251h220.003c22.091 0 39.997 17.913 39.997 40.004s-17.907 39.997-39.997 39.997h-220.003c-22.091 0-39.997-17.907-39.997-39.997s17.907-40.004 39.997-40.004zM452 439.255c0-66.171-53.832-119.999-120-119.999s-120 53.828-120 119.999c0 66.168 53.832 119.999 120 119.999s120-53.832 120-119.999zM372 439.255c0 22.055-17.944 39.999-40 39.999s-40-17.944-40-39.999c0-22.057 17.944-40.004 40-40.004s40 17.947 40 40.004z" />
<glyph unicode="&#xe955;" glyph-name="i_up-arrow" d="M343.274 615.611c11.184-11.131 29.274-11.088 40.406 0.096l99.748 100.232v-605.083c0-15.779 12.793-28.57 28.573-28.57s28.57 12.79 28.57 28.57v605.084l99.747-100.234c11.132-11.184 29.223-11.227 40.409-0.096 11.186 11.133 11.225 29.223 0.098 40.407l-148.573 149.291c-0.010 0.010-0.020 0.017-0.029 0.026-11.127 11.156-29.277 11.191-40.448 0.001-0.010-0.010-0.020-0.017-0.024-0.026l-148.573-149.291c-11.129-11.183-11.090-29.274 0.097-40.407z" />
<glyph unicode="&#xe956;" glyph-name="i_down-arrow" d="M680.726 280.391c-11.181 11.127-29.272 11.088-40.404-0.098l-99.747-100.23v605.080c0 15.78-12.79 28.572-28.57 28.572-15.784 0-28.574-12.791-28.574-28.572v-605.085l-99.749 100.235c-11.131 11.186-29.221 11.23-40.406 0.098s-11.227-29.223-0.097-40.409l148.569-149.289c0.010-0.010 0.020-0.020 0.029-0.024 11.132-11.157 29.282-11.196 40.448-0.005 0.010 0.010 0.020 0.020 0.029 0.029l148.568 149.289c11.132 11.181 11.093 29.272-0.098 40.409z" />
<glyph unicode="&#xe957;" glyph-name="i_paste" d="M175.543 813.714h497.371c16.15 0 29.257-13.107 29.257-29.257v-497.371c0-16.15-13.107-29.257-29.257-29.257h-497.371c-16.15 0-29.257 13.107-29.257 29.257v497.371c0 16.15 13.107 29.257 29.257 29.257zM204.8 316.343h438.857v438.857h-438.857v-438.857zM819.195 140.8v73.143h58.514v-102.4c0-16.15-13.107-29.257-29.257-29.257h-102.4v58.514h73.143zM678.468 140.8h-157.403v-58.514h157.403v58.514zM380.341 213.943v-73.143h73.143v-58.514h-102.4c-16.15 0-29.257 13.107-29.257 29.257v102.4h58.514zM848.452 638.172h-102.4v-58.514h73.143v-73.143h58.514v102.4c0 16.15-13.107 29.257-29.257 29.257zM819.2 438.93h58.514v-157.403h-58.514v157.403z" />
<glyph unicode="&#xe958;" glyph-name="trash" d="M797.716 729.778h-185.715v55.364c0 15.78-12.79 28.572-28.574 28.572h-142.855c-15.78 0-28.572-12.791-28.572-28.572v-55.364h-185.715c-15.78 0-28.571-12.791-28.571-28.572v-111.914c0-15.78 12.791-28.572 28.571-28.572h42.857v-407.009c0-39.385 32.043-71.426 71.429-71.426h342.856c39.385 0 71.431 32.041 71.431 71.426v407.009h42.857c15.779 0 28.57 12.791 28.57 28.572v111.914c0 15.78-12.79 28.572-28.57 28.572zM469.143 756.571h85.714v-26.793h-85.714v26.793zM697.715 153.712c0-7.875-6.407-14.282-14.287-14.282h-342.856c-7.877 0-14.286 6.407-14.286 14.282v407.009h371.429v-407.009zM769.141 617.864h-514.284v54.772h514.284v-54.772zM440.572 518.538c-15.78 0-28.572-12.792-28.572-28.572v-279.788c0-15.779 12.791-28.57 28.572-28.57s28.571 12.79 28.571 28.57v279.788c0 15.78-12.791 28.572-28.571 28.572zM554.857 489.966c0 15.78 12.79 28.572 28.57 28.572 15.784 0 28.574-12.792 28.574-28.572v-279.788c0-15.779-12.79-28.57-28.574-28.57-15.779 0-28.57 12.79-28.57 28.57v279.788z" />
<glyph unicode="&#xe959;" glyph-name="i_layout" d="M889.6 857.6h-755.2c-17.675 0-32-14.325-32-32v-755.2c0-17.674 14.325-32 32-32h755.2c17.674 0 32 14.326 32 32v755.2c0 17.675-14.326 32-32 32zM354.131 102.4h-187.731v141.251h187.731v-141.251zM354.131 307.651h-187.731v280.699h187.731v-280.699zM354.131 652.35h-187.731v141.25h187.731v-141.25zM605.87 102.4h-187.739v313.6h187.734v-313.6h0.005zM605.87 480h-187.739v313.6h187.734v-313.6h0.005zM857.6 102.4h-187.73v141.251h187.73v-141.251zM857.6 307.651h-187.73v485.949h187.73v-485.949z" />
<glyph unicode="&#xe95a;" glyph-name="i_aa" d="M793.6 857.6h-563.2c-70.579 0-128-57.421-128-128v-563.2c0-70.579 57.421-128 128-128h563.2c70.579 0 128 57.421 128 128v563.2c0 70.579-57.421 128-128 128zM857.6 166.4c0-35.287-28.713-64-64-64h-563.2c-35.29 0-64 28.713-64 64v563.2c0 35.29 28.71 64 64 64h563.2c35.287 0 64-28.71 64-64v-563.2zM419.129 564.688c-4.196 13.357-21.369 19.845-38.924 19.845s-34.728-6.488-38.926-19.845l-70.982-232.79c-0.381-1.526-0.763-3.052-0.763-4.198 0-14.121 21.753-24.428 38.159-24.428 9.541 0 17.174 3.057 19.463 11.069l12.976 47.703h80.524l12.976-47.703c2.29-8.013 9.922-11.069 19.463-11.069 16.412 0 38.163 10.307 38.163 24.428 0 1.142-0.381 2.673-0.763 4.198l-71.365 232.79zM352.346 407.839l27.859 102.278 27.859-102.278h-55.718zM630.518 584.533c17.551 0 34.729-6.488 38.922-19.845l71.368-232.79c0.379-1.526 0.763-3.057 0.763-4.198 0-14.121-21.755-24.428-38.164-24.428-9.544 0-17.172 3.057-19.466 11.069l-12.974 47.703h-80.522l-12.974-47.703c-2.294-8.013-9.923-11.069-19.466-11.069-16.404 0-38.159 10.307-38.159 24.428 0 1.147 0.384 2.673 0.763 4.198l70.984 232.79c4.198 13.357 21.371 19.845 38.927 19.845zM630.518 510.117l-27.863-102.278h55.721l-27.858 102.278z" />
<glyph unicode="&#xe95b;" glyph-name="i_left-align" d="M511.221 721.067h-334.826c-12.59 0-22.795-14.327-22.795-32s10.205-32 22.795-32h334.826c12.591 0 22.795 14.326 22.795 32s-10.204 32-22.795 32zM853.335 426.665h-671.29c-15.71 0-28.445-14.326-28.445-32s12.734-32 28.445-32h671.29c15.708 0 28.442 14.326 28.442 32s-12.733 32-28.442 32zM197.233 244.623h640.911c24.1 0 43.633-14.326 43.633-32s-19.533-32-43.633-32h-640.911c-24.098 0-43.633 14.326-43.633 32s19.534 32 43.633 32z" />
<glyph unicode="&#xe95c;" glyph-name="i_Text" d="M230.4 857.6h563.2c70.579 0 128-57.421 128-128v-563.2c0-70.579-57.421-128-128-128h-563.2c-70.579 0-128 57.421-128 128v563.2c0 70.579 57.421 128 128 128zM793.6 102.4c35.287 0 64 28.713 64 64v563.2c0 35.29-28.713 64-64 64h-563.2c-35.29 0-64-28.71-64-64v-563.2c0-35.287 28.71-64 64-64h563.2zM555.167 564.651h104.96v68.608h-296.447v-68.608h104.96v-304.386h86.527v304.386z" />
<glyph unicode="&#xe95d;" glyph-name="i_list" d="M188.8 688c0-23.859-19.341-43.2-43.2-43.2s-43.2 19.341-43.2 43.2c0 23.859 19.341 43.2 43.2 43.2s43.2-19.341 43.2-43.2zM333.219 720h556.381c17.674 0 32-14.326 32-32s-14.326-32-32-32h-556.381c-17.674 0-32 14.326-32 32s14.326 32 32 32zM333.219 480h556.381c17.674 0 32-14.326 32-32s-14.326-32-32-32h-556.381c-17.674 0-32 14.326-32 32s14.326 32 32 32zM889.6 240h-556.381c-17.674 0-32-14.326-32-32s14.326-32 32-32h556.381c17.674 0 32 14.326 32 32s-14.326 32-32 32zM145.6 404.797c23.859 0 43.2 19.343 43.2 43.203s-19.341 43.2-43.2 43.2c-23.859 0-43.2-19.341-43.2-43.2s19.341-43.203 43.2-43.203zM188.8 208c0-23.859-19.341-43.197-43.2-43.197s-43.2 19.338-43.2 43.197c0 23.859 19.341 43.197 43.2 43.197s43.2-19.338 43.2-43.197z" />
<glyph unicode="&#xe95e;" glyph-name="i_image" d="M793.6 857.6h-563.2c-70.579 0-128-57.421-128-128 0-16.355 0-553.861 0-563.2v-1.992c0-69.484 56.526-126.008 126.008-126.008h567.184c69.484 0 126.008 56.525 126.008 126.008v1.992c0 9.339 0 546.861 0 563.2 0 70.579-57.421 128-128 128zM857.6 166.4c0-35.287-28.713-64-64-64h-563.2c-35.29 0-64 28.713-64 64v2.534l206.563 306.522 169.593-251.671c5.949-8.827 15.898-14.116 26.537-14.116 10.644 0 20.593 5.289 26.537 14.116l112.502 166.953 149.468-221.798v-2.54zM857.6 283.464l-122.931 182.419c-5.949 8.827-15.892 14.117-26.537 14.117s-20.588-5.293-26.537-14.117l-112.502-166.952-169.592 251.669c-5.949 8.825-15.895 14.116-26.537 14.116s-20.589-5.291-26.537-14.116l-180.026-267.142v446.141c0 35.29 28.71 64 64 64h563.2c35.287 0 64-28.71 64-64v-446.136z" />
<glyph unicode="&#xe95f;" glyph-name="i_video" d="M957.809 658.434c-9.411 6.762-21.504 8.586-32.486 4.887l-185.196-62.303v64.183c0 49.626-39.869 90-88.878 90h-511.168c-49.009 0-88.881-40.374-88.881-90v-431.999c0-49.628 39.872-89.999 88.881-89.999h511.168c49.009 0 88.878 40.371 88.878 89.999v64.184l185.196-62.305c10.982-3.697 23.076-1.874 32.486 4.884 9.411 6.769 14.991 17.649 14.991 29.235v360.001c0 11.589-5.581 22.47-14.991 29.234zM900.803 319.293l-185.196 62.305c-23.316 7.844-47.478-9.544-47.478-34.12v-114.278c0-9.928-7.572-18.002-16.881-18.002h-511.168c-9.308 0-16.881 8.074-16.881 18.002v431.999c0 9.925 7.572 18 16.881 18h511.168c9.308 0 16.881-8.075 16.881-18v-114.277c0-24.601 24.177-41.956 47.478-34.121l185.196 62.303v-259.812z" />
<glyph unicode="&#xe960;" glyph-name="i_link" d="M884.828 252.57l-62.766 62.776c-41.564 41.559-104.32 47.519-151.869 19.712l-18.412 18.412c27.95 48.020 21.396 110.756-19.697 151.843l-62.766 62.775c-41.564 41.562-104.319 47.519-151.869 19.706l-18.394 18.4c27.75 47.45 21.925 110.231-19.713 151.862l-62.769 62.775c-49.025 49.018-128.374 49.025-177.405 0-49.025-49.031-49.025-128.375 0-177.406l62.775-62.775c41.562-41.563 104.312-47.519 151.862-19.713l18.419-18.413c-27.956-48.012-21.4-110.75 19.687-151.843l62.775-62.766c41.563-41.564 104.31-47.529 151.865-19.717l18.391-18.391c-27.75-47.457-21.919-110.234 19.712-151.869l62.776-62.766c49.019-49.029 128.369-49.034 177.398 0 49.024 49.024 49.034 128.369 0 177.398zM350.374 654.875l-15.544 15.544c-12.494 12.494-32.756 12.494-45.25 0-12.5-12.494-12.494-32.756 0-45.25l15.544-15.55c-20.169-4.85-42.175 0.525-57.925 16.282l-62.775 62.775c-24.013 24.012-24.019 62.881 0 86.9 24.012 24.012 62.881 24.018 86.9 0l62.775-62.775c15.737-15.737 21.131-37.744 16.275-57.925zM603.090 402.156l-15.519 15.519c-12.498 12.503-32.753 12.503-45.256 0-12.493-12.493-12.493-32.753 0-45.251l15.549-15.549c-20.168-4.849-42.173 0.532-57.929 16.282l-62.769 62.776c-15.675 15.674-21.093 37.78-16.256 57.9l15.519-15.519c12.494-12.494 32.756-12.494 45.256 0 12.493 12.5 12.493 32.756 0 45.256l-15.55 15.543c20.169 4.85 42.174-0.525 57.931-16.281l62.766-62.769c15.677-15.672 21.094-37.78 16.256-57.907zM839.578 120.422c-24.013-24.013-62.879-24.023-86.897 0l-62.776 62.771c-15.739 15.739-21.13 37.745-16.282 57.928l15.549-15.544c12.493-12.503 32.758-12.503 45.251 0 12.493 12.493 12.493 32.753 0 45.251l-15.549 15.549c20.173 4.849 42.173-0.532 57.933-16.282l62.771-62.776c24.013-24.013 24.018-62.879 0-86.897z" />
</font>
</defs>
</svg>
