<svg width="20" height="20" viewBox="0 0 20 20" fill="none" xmlns="http://www.w3.org/2000/svg">
<path d="M8.37191 3.34346C8.61747 2.56764 9.71532 2.56764 9.96088 3.34346L11.44 8.01665C11.5218 8.27524 11.7244 8.47782 11.983 8.55967L16.6562 10.0388C17.432 10.2843 17.432 11.3822 16.6562 11.6277L11.983 13.1069C11.7244 13.1887 11.5218 13.3913 11.44 13.6499L9.96088 18.3231C9.71532 19.0989 8.61747 19.0989 8.37191 18.3231L6.8928 13.6499C6.81095 13.3913 6.60837 13.1887 6.34978 13.1069L1.67659 11.6277C0.900772 11.3822 0.90077 10.2843 1.67659 10.0388L6.34978 8.55967C6.60837 8.47782 6.81095 8.27524 6.8928 8.01665L8.37191 3.34346Z" fill="#FFB61F"/>
<path d="M16.3387 0.24029C16.4401 -0.0800962 16.8935 -0.080097 16.9949 0.240289L17.6057 2.17015C17.6395 2.27694 17.7232 2.3606 17.83 2.3944L19.7598 3.00522C20.0802 3.10662 20.0802 3.56 19.7598 3.6614L17.83 4.27222C17.7232 4.30603 17.6395 4.38968 17.6057 4.49647L16.9949 6.42633C16.8935 6.74672 16.4401 6.74672 16.3387 6.42633L15.7279 4.49647C15.6941 4.38968 15.6104 4.30603 15.5036 4.27222L13.5738 3.6614C13.2534 3.56 13.2534 3.10662 13.5738 3.00522L15.5036 2.3944C15.6104 2.3606 15.6941 2.27694 15.7279 2.17015L16.3387 0.24029Z" fill="#FFB61F"/>
<path d="M2.25391 15.1802C2.32997 14.9399 2.67 14.9399 2.74605 15.1802L3.20417 16.6276C3.22952 16.7077 3.29226 16.7704 3.37235 16.7958L4.81975 17.2539C5.06004 17.33 5.06004 17.67 4.81975 17.7461L3.37235 18.2042C3.29226 18.2295 3.22952 18.2923 3.20417 18.3724L2.74605 19.8197C2.67 20.06 2.32997 20.06 2.25391 19.8197L1.7958 18.3724C1.77045 18.2923 1.7077 18.2295 1.62761 18.2042L0.180218 17.7461C-0.0600722 17.67 -0.0600727 17.33 0.180217 17.2539L1.62761 16.7958C1.7077 16.7704 1.77045 16.7077 1.7958 16.6276L2.25391 15.1802Z" fill="#FFB61F"/>
</svg>
